<svg id="Layer_1" data-name="Layer 1" xmlns="http://www.w3.org/2000/svg" viewBox="0 0 512 512"><path d="M269.05,267.62H233.76V308h37.8c3.31-.74,14.83-3,14.83-20.19C286.39,272.13,269.05,267.62,269.05,267.62Z"/><path d="M280.43,225.61c0-14.29-8.83-17.82-8.83-17.82H233.76v35.64h33.46S280.45,239.87,280.43,225.61Z"/><path d="M256,128.11A127.89,127.89,0,1,0,383.89,256,128,128,0,0,0,256,128.11Zm18.22,204-.8.11H209.77V183.6h58.37a32.31,32.31,0,0,1,25.94,12.77c5.15,6.87,9.89,16.26,9.89,27.52,0,7.44-5.35,23.13-11.29,28.64,10.12,6.61,18.07,20.91,17.69,37.82C309.65,322.31,286.41,330.42,274.22,332.07Z"/><path d="M256,86.35A169.65,169.65,0,1,0,425.65,256,169.66,169.66,0,0,0,256,86.35Zm0,320.52c-83.19,0-150.87-67.68-150.87-150.87S172.81,105.13,256,105.13,406.87,172.81,406.87,256,339.19,406.87,256,406.87Z"/></svg>