<svg id="Layer_1" data-name="Layer 1" xmlns="http://www.w3.org/2000/svg" viewBox="0 0 512 512"><path d="M256,86.35A169.65,169.65,0,1,0,425.65,256,169.66,169.66,0,0,0,256,86.35Zm0,320.52c-83.19,0-150.87-67.68-150.87-150.87S172.81,105.13,256,105.13,406.87,172.81,406.87,256,339.19,406.87,256,406.87Z"/><path d="M201.92,227.11v84.26H307.51V227.11l-52.8-46.37Zm80.69,65.69H229.14V244.27h53.47Z"/><path d="M256,128.11A127.89,127.89,0,1,0,383.89,256,128,128,0,0,0,256,128.11Zm73.12,114.58V333H180.31V242.69H151.43L254.71,152,358,242.69Z"/></svg>