<svg id="Layer_1" data-name="Layer 1" xmlns="http://www.w3.org/2000/svg" viewBox="0 0 512 512"><defs><style>.cls-1{fill:none;stroke:#000;stroke-miterlimit:10;stroke-width:15px;}</style></defs><path d="M166.58,190l5.7,1,28-41.78-43.71-25.3L152,127.54c13.12,5.9,22.34,15.21,25.12,27.07S175.72,178.9,166.58,190Z"/><path class="cls-1" d="M178.51,157.42c-70.59,14.06-114.44,74.21-97.94,134.35"/><path d="M342,190l-5.71,1-28-41.78,43.7-25.3,4.63,3.66c-13.11,5.9-22.34,15.21-25.11,27.07S332.88,178.9,342,190Z"/><path class="cls-1" d="M330.09,157.42c70.59,14.06,114.44,74.21,97.94,134.35"/><path d="M361.71,253.06V225.65a10,10,0,0,0-10-10H160.3a10,10,0,0,0-10,10v22a55.4,55.4,0,0,0,3.9,20.61c7.27,18.27,22.2,27.92,43.21,27.92h.19c1.09,0,1.89,0,2.35,0H311.88c1.34.11,2.64.16,3.92.16,29.29,0,44.3-27,45.86-42.31h0c0-.31.05-.62.05-.94m-71.17-21.45a8.23,8.23,0,1,1-8.24,8.23A8.23,8.23,0,0,1,290.53,231.64Zm-67.37,42.3A17.94,17.94,0,1,1,241.1,256,17.94,17.94,0,0,1,223.16,273.94Zm51.92-9.61a8.23,8.23,0,1,1,8.23-8.23A8.24,8.24,0,0,1,275.08,264.33Zm15.45,16a8.23,8.23,0,1,1,8.23-8.23A8.23,8.23,0,0,1,290.53,280.36Zm15.44-16a8.23,8.23,0,1,1,8.23-8.23A8.23,8.23,0,0,1,306,264.33Z"/></svg>