<svg id="Layer_1" data-name="Layer 1" xmlns="http://www.w3.org/2000/svg" xmlns:xlink="http://www.w3.org/1999/xlink" viewBox="0 0 4096 2160"><defs><style>.cls-1{fill:#09bae3;}.cls-1,.cls-10,.cls-11,.cls-12,.cls-13,.cls-14,.cls-15,.cls-17,.cls-18,.cls-19,.cls-2,.cls-20,.cls-21,.cls-22,.cls-23,.cls-24,.cls-25,.cls-26,.cls-27,.cls-28,.cls-29,.cls-3,.cls-30,.cls-31,.cls-4,.cls-5,.cls-6,.cls-7,.cls-8,.cls-9{stroke:#000;}.cls-1,.cls-10,.cls-11,.cls-12,.cls-13,.cls-14,.cls-15,.cls-17,.cls-18,.cls-19,.cls-2,.cls-20,.cls-21,.cls-22,.cls-23,.cls-24,.cls-25,.cls-26,.cls-27,.cls-28,.cls-29,.cls-3,.cls-31,.cls-4,.cls-5,.cls-6,.cls-7,.cls-8,.cls-9{stroke-width:7px;}.cls-2,.cls-8{fill:#231f20;}.cls-3{fill:#f55a55;}.cls-10,.cls-11,.cls-12,.cls-13,.cls-14,.cls-17,.cls-18,.cls-19,.cls-20,.cls-21,.cls-22,.cls-23,.cls-24,.cls-25,.cls-26,.cls-27,.cls-28,.cls-30,.cls-4,.cls-5,.cls-6,.cls-7,.cls-8,.cls-9{stroke-miterlimit:10;}.cls-4{fill:url(#radial-gradient);}.cls-5{fill:url(#radial-gradient-2);}.cls-6{fill:url(#radial-gradient-3);}.cls-7{fill:url(#radial-gradient-4);}.cls-9{fill:url(#radial-gradient-5);}.cls-10{fill:url(#radial-gradient-6);}.cls-11{fill:url(#radial-gradient-7);}.cls-12,.cls-30,.cls-31{fill:none;}.cls-13{fill:url(#radial-gradient-8);}.cls-15{fill:#4f4f4f;}.cls-16{fill:#d0d2d3;}.cls-17{fill:url(#radial-gradient-9);}.cls-18{fill:url(#radial-gradient-10);}.cls-19{fill:url(#radial-gradient-11);}.cls-20{fill:url(#radial-gradient-12);}.cls-21{fill:url(#radial-gradient-13);}.cls-22{fill:url(#radial-gradient-14);}.cls-23{fill:url(#radial-gradient-15);}.cls-24{fill:url(#radial-gradient-16);}.cls-25{fill:url(#radial-gradient-17);}.cls-26{fill:url(#radial-gradient-18);}.cls-27{fill:url(#radial-gradient-19);}.cls-28{fill:url(#radial-gradient-20);}.cls-29{fill:#404041;}.cls-30{stroke-width:10px;}</style><radialGradient id="radial-gradient" cx="2998.99" cy="782.84" r="31.62" gradientUnits="userSpaceOnUse"><stop offset="0.22" stop-color="#1c1c1c"/><stop offset="1" stop-color="#121212"/></radialGradient><radialGradient id="radial-gradient-2" cx="2998.99" cy="923.31" r="31.62" xlink:href="#radial-gradient"/><radialGradient id="radial-gradient-3" cx="2926.5" cy="853.07" r="31.62" xlink:href="#radial-gradient"/><radialGradient id="radial-gradient-4" cx="3072.24" cy="853.07" r="31.62" xlink:href="#radial-gradient"/><radialGradient id="radial-gradient-5" cx="1202.84" cy="707.96" r="18.4" xlink:href="#radial-gradient"/><radialGradient id="radial-gradient-6" cx="2906.84" cy="708.56" r="24.31" xlink:href="#radial-gradient"/><radialGradient id="radial-gradient-7" cx="2947.76" cy="1286.75" r="32.9" xlink:href="#radial-gradient"/><radialGradient id="radial-gradient-8" cx="1161.61" cy="1288" r="25.43" xlink:href="#radial-gradient"/><radialGradient id="radial-gradient-9" cx="2999.33" cy="1110.47" r="68.9" xlink:href="#radial-gradient"/><radialGradient id="radial-gradient-10" cx="2999.33" cy="1110.47" r="52.32" xlink:href="#radial-gradient"/><radialGradient id="radial-gradient-11" cx="2999.33" cy="1049.87" r="5.86" xlink:href="#radial-gradient"/><radialGradient id="radial-gradient-12" cx="3059.94" cy="1110.47" r="5.86" xlink:href="#radial-gradient"/><radialGradient id="radial-gradient-13" cx="2999.33" cy="1171.08" r="5.86" xlink:href="#radial-gradient"/><radialGradient id="radial-gradient-14" cx="2938.72" cy="1110.47" r="5.86" xlink:href="#radial-gradient"/><radialGradient id="radial-gradient-15" cx="1109.29" cy="851.74" r="68.9" xlink:href="#radial-gradient"/><radialGradient id="radial-gradient-16" cx="1109.29" cy="851.74" r="52.32" xlink:href="#radial-gradient"/><radialGradient id="radial-gradient-17" cx="1109.29" cy="791.13" r="5.86" xlink:href="#radial-gradient"/><radialGradient id="radial-gradient-18" cx="1169.9" cy="851.74" r="5.86" xlink:href="#radial-gradient"/><radialGradient id="radial-gradient-19" cx="1109.29" cy="912.35" r="5.86" xlink:href="#radial-gradient"/><radialGradient id="radial-gradient-20" cx="1048.69" cy="851.74" r="5.86" xlink:href="#radial-gradient"/></defs><path class="cls-1" d="M3153.5,1355.79V812.65s.21-3.58,0-9.75c.55-103.42-54-148.41-107.26-169.6a225.45,225.45,0,0,0-83.36-15.71h-106.2a4.62,4.62,0,0,0-4.57,4.68v923.89a4.61,4.61,0,0,0,4.57,4.68c25.12,0,141.06,0,132.58,0C3041.45,1545.53,3165.09,1488.05,3153.5,1355.79Z"/><path class="cls-2" d="M2818.61,617.59H1286.94a4.67,4.67,0,0,0-4.68,4.62c-.06,10.19-3,33.7-28.82,33.7v894.94H2852.11V655.91c-25.82,0-28.76-23.51-28.82-33.7A4.67,4.67,0,0,0,2818.61,617.59Z"/><path class="cls-3" d="M952.05,1355.79V812.65s-.21-3.58,0-9.75c-.55-103.42,54-148.41,107.26-169.6a225.49,225.49,0,0,1,83.36-15.71h106.2a4.62,4.62,0,0,1,4.57,4.68v923.89a4.61,4.61,0,0,1-4.57,4.68c-25.12,0-141.06,0-132.58,0C1064.1,1545.53,940.46,1488.05,952.05,1355.79Z"/><circle class="cls-4" cx="2998.99" cy="782.84" r="31.62"/><circle class="cls-5" cx="2998.99" cy="923.31" r="31.62"/><circle class="cls-6" cx="2926.5" cy="853.07" r="31.62"/><circle class="cls-7" cx="3072.24" cy="853.07" r="31.62"/><circle class="cls-8" cx="1108.92" cy="1040.24" r="31.62"/><circle class="cls-8" cx="1108.92" cy="1180.71" r="31.62"/><circle class="cls-8" cx="1036.42" cy="1110.47" r="31.62"/><circle class="cls-8" cx="1182.17" cy="1110.47" r="31.62"/><rect class="cls-9" x="1178.19" y="699.61" width="49.29" height="16.7" rx="2.52"/><path class="cls-10" d="M2929,701.1h-12.53a2.16,2.16,0,0,1-2.16-2.16V686.41a2.17,2.17,0,0,0-2.17-2.16h-10.59a2.16,2.16,0,0,0-2.16,2.16v12.53a2.16,2.16,0,0,1-2.16,2.16h-12.53a2.16,2.16,0,0,0-2.16,2.16v10.59a2.16,2.16,0,0,0,2.16,2.16h12.53a2.17,2.17,0,0,1,2.16,2.17V730.7a2.17,2.17,0,0,0,2.16,2.17h10.59a2.17,2.17,0,0,0,2.17-2.17V718.18a2.16,2.16,0,0,1,2.16-2.17H2929a2.16,2.16,0,0,0,2.16-2.16V703.26A2.16,2.16,0,0,0,2929,701.1Z"/><circle class="cls-11" cx="2947.76" cy="1286.75" r="32.9"/><polygon class="cls-12" points="2948.52 1270.48 2933.66 1283.53 2935.86 1283.53 2935.86 1301.5 2948.52 1301.5 2961.18 1301.5 2961.18 1283.53 2963.37 1283.53 2948.52 1270.48"/><rect x="2943.19" y="1285.99" width="10.65" height="9.66"/><rect class="cls-13" x="1136.18" y="1262.57" width="50.86" height="50.86" rx="5.97"/><circle class="cls-12" cx="1161.61" cy="1287.72" r="16.57"/><rect class="cls-14" x="1301.45" y="652.48" width="1503.24" height="866.15" rx="23.56"/><rect class="cls-15" x="1418.96" y="726.45" width="1268.21" height="711.06"/><polygon class="cls-16" points="3008.85 770.39 3004.12 770.35 2998.83 778.86 2993.54 770.35 2988.81 770.39 2996.19 782.56 2987.58 796.58 2992.31 796.62 2998.83 786.26 3005.35 796.62 3010.08 796.58 3001.48 782.56 3008.85 770.39"/><polygon class="cls-16" points="2931.77 842.03 2925.4 850.89 2919.03 842.03 2913.65 842.02 2923.25 855.34 2923.25 866.76 2927.55 866.76 2927.55 855.34 2937.16 842.02 2931.77 842.03"/><path class="cls-16" d="M3005.35,922.38a9.21,9.21,0,0,0,2-5.09,8.16,8.16,0,0,0-1.77-4.9,5.8,5.8,0,0,0-4.65-2.27h-10.47v26.43h11.42l.14,0c2.18-.29,6.35-1.73,6.48-7.42A7.85,7.85,0,0,0,3005.35,922.38Zm-3.78-8s1.58.63,1.58,3.17a3.29,3.29,0,0,1-2.37,3.17h-6v-6.34Zm0,17.83h-6.78v-7.18h6.33s3.11.8,3.11,3.59C3004.22,931.71,3002.16,932.12,3001.56,932.25Z"/><path class="cls-16" d="M3074.81,838.78h-3.75l-11.41,25.67,4.54-.07,2.94-6.52h11.53l2.64,5.9,4.55.09Zm-5.74,14.78,3.85-8.53,3.82,8.53Z"/><circle class="cls-17" cx="2999.33" cy="1110.47" r="68.9"/><circle class="cls-18" cx="2999.33" cy="1110.47" r="52.32"/><line class="cls-19" x1="2999.33" y1="1058.16" x2="2999.33" y2="1041.58"/><line class="cls-20" x1="3051.65" y1="1110.47" x2="3068.23" y2="1110.47"/><line class="cls-21" x1="2999.33" y1="1179.37" x2="2999.33" y2="1162.79"/><line class="cls-22" x1="2947.01" y1="1110.47" x2="2930.43" y2="1110.47"/><circle class="cls-23" cx="1109.29" cy="851.74" r="68.9"/><circle class="cls-24" cx="1109.29" cy="851.74" r="52.32"/><line class="cls-25" x1="1109.29" y1="799.42" x2="1109.29" y2="782.84"/><line class="cls-26" x1="1161.61" y1="851.74" x2="1178.19" y2="851.74"/><line class="cls-27" x1="1109.29" y1="904.06" x2="1109.29" y2="920.64"/><line class="cls-28" x1="1056.98" y1="851.74" x2="1040.4" y2="851.74"/><path d="M1107.84,1028.63l-11.7,19.08a1.43,1.43,0,0,0,1.22,2.18h23.4a1.43,1.43,0,0,0,1.22-2.18l-11.7-19.08A1.43,1.43,0,0,0,1107.84,1028.63Z"/><path d="M1110.28,1193.7l11.7-19.07a1.44,1.44,0,0,0-1.22-2.19h-23.4a1.44,1.44,0,0,0-1.22,2.19l11.7,19.07A1.42,1.42,0,0,0,1110.28,1193.7Z"/><path d="M1022.75,1112.39l19.08,11.7a1.44,1.44,0,0,0,2.18-1.23v-23.39a1.43,1.43,0,0,0-2.18-1.22l-19.08,11.7A1.43,1.43,0,0,0,1022.75,1112.39Z"/><path d="M1194.61,1110l-19.07-11.7a1.44,1.44,0,0,0-2.19,1.22v23.39a1.44,1.44,0,0,0,2.19,1.23l19.07-11.7A1.42,1.42,0,0,0,1194.61,1110Z"/><path class="cls-29" d="M2962.88,617.59a225.45,225.45,0,0,1,83.36,15.71c39.09,15.55,78.88,43.93,97.06,98.83h5.94c-16.52-61.33-63.39-89.49-88-102.18C3035.82,616.86,2999,607,2963.63,607h-50v10.57Z"/><path class="cls-29" d="M1142.85,617.59a225.45,225.45,0,0,0-83.36,15.71c-39.09,15.55-78.88,43.93-97.07,98.83h-5.93c16.52-61.33,63.39-89.49,88-102.18,25.41-13.09,62.23-22.93,97.6-22.93h50v10.57Z"/><polygon points="1467.88 608.74 1467.88 617.59 1601.1 617.59 1601.1 608.74 1532.22 613.27 1467.88 608.74"/><polyline class="cls-12" points="3059.66 913.61 3125.9 979.85 3461.04 979.85"/><polyline class="cls-12" points="1049.52 929.56 986.09 992.98 650.95 992.98"/><polyline class="cls-12" points="2906.84 657.82 2906.84 513.32 3050.62 369.54"/><polyline class="cls-12" points="1210.67 657.82 1210.67 513.32 1066.89 369.54"/><polyline class="cls-12" points="3061.54 1184.98 3232.54 1355.98 3719.78 1355.98"/><polyline class="cls-12" points="3048.98 591.21 3203.67 436.53 3414.87 436.53"/><polyline class="cls-12" points="1057.23 591.21 900.98 434.96 689.78 434.96"/><path d="M552.45,397.07v-42.5h9.81v33.88h20.6v8.62Z"/><path d="M3525.82,397.74V355.82h18.9a12.12,12.12,0,0,1,5.46,1.24,14.41,14.41,0,0,1,4.34,3.25,15.11,15.11,0,0,1,2.86,4.54,13.52,13.52,0,0,1,1,5.14,14.49,14.49,0,0,1-.48,3.75,13.9,13.9,0,0,1-1.36,3.39,12.67,12.67,0,0,1-2.15,2.87,13.15,13.15,0,0,1-2.86,2.15l9.21,15.59h-10.93l-8-13.52h-6.31v13.52Zm9.69-22h8.85a3.66,3.66,0,0,0,3-1.62,6.7,6.7,0,0,0,1.23-4.16,5.86,5.86,0,0,0-1.41-4.13,4.15,4.15,0,0,0-3.07-1.54h-8.56Z"/><path class="cls-12" d="M3452.68,342.2h126a49.51,49.51,0,0,1,49.51,49.51v23.17a0,0,0,0,1,0,0H3452.68a0,0,0,0,1,0,0V342.2A0,0,0,0,1,3452.68,342.2Z"/><path d="M3500.06,511.56,3523.9,483H3501v-9.28h35.13v7.93L3513.4,510.2h22.94v9.28h-36.28Z"/><path d="M3542.31,519.48V480.11h17.74a11.49,11.49,0,0,1,5.13,1.16,13.89,13.89,0,0,1,4.08,3.05,14.49,14.49,0,0,1,2.69,4.27,12.85,12.85,0,0,1,1,4.83,13.9,13.9,0,0,1-1.72,6.71,12.12,12.12,0,0,1-4.71,4.71l8.65,14.64h-10.26l-7.55-12.7h-5.93v12.7Zm9.09-20.63h8.32a3.42,3.42,0,0,0,2.77-1.52,6.25,6.25,0,0,0,1.17-3.91,5.52,5.52,0,0,0-1.33-3.88,3.89,3.89,0,0,0-2.89-1.45h-8Z"/><path class="cls-12" d="M3451.43,439.64h176.75a0,0,0,0,1,0,0v55.71A59.63,59.63,0,0,1,3568.55,555H3451.43a0,0,0,0,1,0,0V439.64A0,0,0,0,1,3451.43,439.64Z"/><path d="M530.54,511.56,554.39,483H531.44v-9.28h35.13v7.93L543.88,510.2h22.94v9.28H530.54Z"/><path d="M572.79,519.48V480.11h9.09V511.5H601v8Z"/><path class="cls-12" d="M477.38,439.64H594.49a59.63,59.63,0,0,1,59.63,59.63V555a0,0,0,0,1,0,0H477.38a0,0,0,0,1,0,0V439.64A0,0,0,0,1,477.38,439.64Z" transform="translate(1131.5 994.62) rotate(180)"/><path class="cls-12" d="M477.38,340.56H655.32a0,0,0,0,1,0,0V364a50.21,50.21,0,0,1-50.21,50.21H477.38a0,0,0,0,1,0,0v-73.7a0,0,0,0,1,0,0Z" transform="translate(1132.7 754.82) rotate(180)"/><circle class="cls-30" cx="3511.41" cy="795.29" r="46.48"/><circle class="cls-30" cx="3512.4" cy="919.54" r="47.47"/><circle class="cls-30" cx="3512.7" cy="1040.99" r="47.17"/><circle class="cls-30" cx="3511.41" cy="1162.44" r="48.46"/><path d="M3521.67,794.31c1.66-1.53,3.16-5.92,3.16-8a12.89,12.89,0,0,0-2.77-7.7,9,9,0,0,0-7.25-3.57h-16.33v41.55h17.8l.23,0c3.4-.46,9.9-2.73,10.11-11.67C3526.72,800.16,3524.5,796.16,3521.67,794.31Zm-5.9-12.51s2.47,1,2.47,5a5.17,5.17,0,0,1-3.69,5h-9.36v-10Zm0,28h-10.57V798.54h9.87s4.85,1.26,4.85,5.64C3519.91,809,3516.69,809.62,3515.76,809.83Z"/><path d="M3515.79,897.76h-6L3491.65,939l7.23-.13,4.68-10.46h18.36l4.21,9.48,7.23.14Zm-9.13,23.74,6.12-13.69,6.08,13.69Z"/><polygon points="3522.01 1021.83 3511.93 1035.96 3501.85 1021.83 3493.33 1021.81 3508.52 1043.06 3508.52 1061.28 3515.33 1061.28 3515.33 1043.06 3530.53 1021.81 3522.01 1021.83"/><polygon points="3527.95 1141.93 3520.26 1141.86 3511.67 1155.8 3503.07 1141.86 3495.38 1141.93 3507.37 1161.87 3493.38 1184.84 3501.07 1184.9 3511.67 1167.93 3522.26 1184.9 3529.96 1184.84 3515.97 1161.87 3527.95 1141.93"/><polyline class="cls-12" points="1052.02 1165.44 864.76 1352.7 703.44 1352.7"/><circle class="cls-31" cx="693.69" cy="1147.45" r="17.77"/><circle class="cls-31" cx="614.73" cy="1147.45" r="17.77"/><path d="M654.21,1127.83a21.14,21.14,0,1,1,21.13-21.13A21.16,21.16,0,0,1,654.21,1127.83Zm0-35.54a14.41,14.41,0,1,0,14.41,14.41A14.42,14.42,0,0,0,654.21,1092.29Z"/><circle class="cls-31" cx="654.21" cy="1188.63" r="17.77"/><path d="M700.22,1146.84l-10.73-6.57a.8.8,0,0,0-1.22.68v13.16a.8.8,0,0,0,1.22.68l10.73-6.57A.81.81,0,0,0,700.22,1146.84Z"/><path d="M607.42,1148.22l10.73,6.57a.8.8,0,0,0,1.22-.68V1141a.8.8,0,0,0-1.22-.68l-10.73,6.57A.81.81,0,0,0,607.42,1148.22Z"/><path d="M654.21,1088.92A17.78,17.78,0,1,0,672,1106.7,17.77,17.77,0,0,0,654.21,1088.92Zm6.19,22H647.24a.8.8,0,0,1-.68-1.23l6.57-10.72a.81.81,0,0,1,1.38,0l6.57,10.72A.8.8,0,0,1,660.4,1111Z"/><path d="M654.51,1195.63l6.57-10.73a.8.8,0,0,0-.68-1.22H647.24a.8.8,0,0,0-.68,1.22l6.57,10.73A.81.81,0,0,0,654.51,1195.63Z"/><circle class="cls-31" cx="654.78" cy="1327.39" r="17.77"/><circle class="cls-31" cx="654.78" cy="1248.43" r="17.77"/><path d="M674.4,1287.91a21.14,21.14,0,1,1,21.14,21.14A21.16,21.16,0,0,1,674.4,1287.91Zm35.55,0a14.41,14.41,0,1,0-14.41,14.41A14.43,14.43,0,0,0,710,1287.91Z"/><circle class="cls-31" cx="613.6" cy="1287.91" r="17.77"/><path d="M655.39,1333.92,662,1323.2a.8.8,0,0,0-.68-1.23H648.13a.81.81,0,0,0-.69,1.23l6.58,10.72A.8.8,0,0,0,655.39,1333.92Z"/><path d="M654,1241.12l-6.58,10.73a.81.81,0,0,0,.69,1.23h13.15a.8.8,0,0,0,.68-1.23l-6.57-10.73A.8.8,0,0,0,654,1241.12Z"/><path d="M713.31,1287.91a17.78,17.78,0,1,0-17.77,17.78A17.78,17.78,0,0,0,713.31,1287.91Zm-22,6.19V1281a.81.81,0,0,1,1.23-.69l10.72,6.58a.8.8,0,0,1,0,1.37l-10.72,6.58A.81.81,0,0,1,691.27,1294.1Z"/><path d="M606.61,1288.21l10.72,6.58a.81.81,0,0,0,1.23-.69V1281a.81.81,0,0,0-1.23-.69l-10.72,6.58A.8.8,0,0,0,606.61,1288.21Z"/><circle class="cls-31" cx="616.77" cy="1425.44" r="17.77"/><circle class="cls-31" cx="695.73" cy="1425.44" r="17.77"/><path d="M656.25,1445.06a21.14,21.14,0,1,1-21.13,21.13A21.16,21.16,0,0,1,656.25,1445.06Zm0,35.54a14.41,14.41,0,1,0-14.41-14.41A14.42,14.42,0,0,0,656.25,1480.6Z"/><circle class="cls-31" cx="656.25" cy="1384.26" r="17.77"/><path d="M610.24,1426l10.73,6.58a.8.8,0,0,0,1.22-.69v-13.15a.8.8,0,0,0-1.22-.68l-10.73,6.57A.8.8,0,0,0,610.24,1426Z"/><path d="M703,1424.67l-10.72-6.57a.8.8,0,0,0-1.23.68v13.15a.81.81,0,0,0,1.23.69L703,1426A.8.8,0,0,0,703,1424.67Z"/><path d="M656.25,1484a17.78,17.78,0,1,0-17.77-17.78A17.77,17.77,0,0,0,656.25,1484Zm-6.19-22h13.16a.8.8,0,0,1,.68,1.22l-6.57,10.73a.81.81,0,0,1-1.38,0l-6.57-10.73A.8.8,0,0,1,650.06,1461.93Z"/><path d="M656,1377.26,649.38,1388a.8.8,0,0,0,.68,1.22h13.16a.8.8,0,0,0,.68-1.22l-6.57-10.73A.81.81,0,0,0,656,1377.26Z"/><circle class="cls-31" cx="657.72" cy="1523.53" r="17.77"/><circle class="cls-31" cx="657.72" cy="1602.5" r="17.77"/><path d="M638.1,1563A21.14,21.14,0,1,1,617,1541.88,21.16,21.16,0,0,1,638.1,1563Zm-35.54,0A14.41,14.41,0,1,0,617,1548.61,14.43,14.43,0,0,0,602.56,1563Z"/><circle class="cls-31" cx="698.9" cy="1563.02" r="17.77"/><path d="M657.11,1517l-6.57,10.72a.8.8,0,0,0,.68,1.23h13.16a.8.8,0,0,0,.68-1.23L658.49,1517A.81.81,0,0,0,657.11,1517Z"/><path d="M658.49,1609.81l6.57-10.73a.8.8,0,0,0-.68-1.23H651.22a.8.8,0,0,0-.68,1.23l6.57,10.73A.81.81,0,0,0,658.49,1609.81Z"/><path d="M599.19,1563A17.78,17.78,0,1,0,617,1545.24,17.78,17.78,0,0,0,599.19,1563Zm22-6.19V1570a.81.81,0,0,1-1.23.69l-10.72-6.58a.8.8,0,0,1,0-1.37l10.72-6.58A.81.81,0,0,1,621.23,1556.83Z"/><path d="M705.9,1562.72l-10.73-6.58a.8.8,0,0,0-1.22.69V1570a.8.8,0,0,0,1.22.69l10.73-6.58A.8.8,0,0,0,705.9,1562.72Z"/></svg>