<svg id="Layer_1" data-name="Layer 1" xmlns="http://www.w3.org/2000/svg" viewBox="0 0 512 512"><defs><style>.cls-1{fill:#fff;}.cls-2{fill:none;stroke:#fff;stroke-miterlimit:10;stroke-width:15px;}</style></defs><path class="cls-1" d="M434,325.2c-11.08-70.43-23.94-158.07-39.61-163.63-7.59-13.74-12.32-26.64-65.56-29-5.7.14-17,7.7-17,7.7-57.87-1.71-53.65-1.69-111.5,0,0,0-11.21-7.53-16.91-7.69-53.15,2.38-57.9,15.19-65.45,28.82C104.9,166.89,95.67,216,86.37,273.21c-2.75,16.92-5.5,34.56-8.37,52a67,67,0,0,0,2.11,27c4.55,23,35.73,39.91,54.92,14.76l24.44-47.39s6.17-13.33,21.22-13.33H331.31c15.06,0,21.23,13.33,21.23,13.33L377,366.93c10.22,16,31.87,13.79,39.86,7.41C432.62,363.65,435.74,342.7,434,325.2ZM214.51,179.3a6.77,6.77,0,1,1-6.76,6.77A6.77,6.77,0,0,1,214.51,179.3ZM165,230a19.13,19.13,0,1,1,19.12-19.13A19.14,19.14,0,0,1,165,230Zm63.61,31.12a3.24,3.24,0,0,1-3.23,3.24H214.22a1.46,1.46,0,0,0-1.46,1.46v11.16a3.23,3.23,0,0,1-3.23,3.23H199.28a3.23,3.23,0,0,1-3.23-3.23V265.78a1.46,1.46,0,0,0-1.47-1.46H183.43a3.23,3.23,0,0,1-3.23-3.24V250.84a3.22,3.22,0,0,1,3.23-3.23h11.15a1.47,1.47,0,0,0,1.47-1.47V235a3.23,3.23,0,0,1,3.23-3.24h10.25a3.24,3.24,0,0,1,3.23,3.24v11.15a1.46,1.46,0,0,0,1.46,1.47h11.16a3.23,3.23,0,0,1,3.23,3.23ZM238,215.85a1.52,1.52,0,0,1-1.52,1.52h-9.13a1.52,1.52,0,0,1-1.52-1.52v-9.13a1.52,1.52,0,0,1,1.52-1.52h9.13a1.52,1.52,0,0,1,1.52,1.52Zm57.54-36.55a6.77,6.77,0,1,1-6.77,6.77A6.77,6.77,0,0,1,295.54,179.3Zm-23.72,31.53a6.77,6.77,0,1,1,6.76,6.77A6.76,6.76,0,0,1,271.82,210.83Zm26.46,63.38a19.13,19.13,0,1,1,19.13-19.12A19.12,19.12,0,0,1,298.28,274.21Zm18.34-51.87a11.51,11.51,0,1,1,11.51-11.51A11.51,11.51,0,0,1,316.62,222.34Zm25,22.14A11.51,11.51,0,1,1,353.14,233,11.51,11.51,0,0,1,341.63,244.48Zm0-44.28a11.51,11.51,0,1,1,11.51-11.51A11.51,11.51,0,0,1,341.63,200.2Zm26,22.14a11.51,11.51,0,1,1,11.51-11.51A11.51,11.51,0,0,1,367.6,222.34Z"/><path class="cls-2" d="M73.12,207.43C36.69,220.18,14.66,236.79,14.66,255c0,40.21,108.05,72.82,241.34,72.82S497.34,295.16,497.34,255c0-17.6-20.68-33.74-55.11-46.33"/><path class="cls-1" d="M446.3,247l-5.59-.3L424.3,200.2l47.13-15.15,3.48,4.53c-13.74,2.91-24.64,10-30.07,20.86S440.34,234.28,446.3,247Z"/></svg>