<svg id="Layer_1" data-name="Layer 1" xmlns="http://www.w3.org/2000/svg" viewBox="0 0 512 512"><defs><style>.cls-1{fill:#fff;}.cls-2{fill:none;stroke:#fff;stroke-miterlimit:10;stroke-width:15px;}</style></defs><path class="cls-1" d="M434,324.2c-11.08-70.43-23.94-158.07-39.61-163.63-7.59-13.74-12.32-26.64-65.56-29-5.7.14-17,7.7-17,7.7-57.87-1.71-53.65-1.69-111.5,0,0,0-11.21-7.53-16.91-7.69-53.15,2.38-57.9,15.18-65.45,28.82C104.9,165.89,95.67,215,86.37,272.21c-2.75,16.92-5.5,34.56-8.37,52a66.92,66.92,0,0,0,2.11,27c4.55,23,35.73,39.92,54.92,14.77l24.44-47.39s6.17-13.33,21.22-13.33H331.31c15.06,0,21.23,13.33,21.23,13.33L377,365.93c10.22,16,31.87,13.79,39.86,7.41C432.62,362.65,435.74,341.7,434,324.2ZM214.51,178.3a6.77,6.77,0,1,1-6.76,6.77A6.77,6.77,0,0,1,214.51,178.3ZM165,229a19.13,19.13,0,1,1,19.12-19.13A19.14,19.14,0,0,1,165,229Zm63.61,31.12a3.23,3.23,0,0,1-3.23,3.23H214.22a1.46,1.46,0,0,0-1.46,1.47v11.15a3.24,3.24,0,0,1-3.23,3.24H199.28a3.23,3.23,0,0,1-3.23-3.24V264.78a1.47,1.47,0,0,0-1.47-1.47H183.43a3.22,3.22,0,0,1-3.23-3.23V249.84a3.23,3.23,0,0,1,3.23-3.24h11.15a1.46,1.46,0,0,0,1.47-1.46V234a3.23,3.23,0,0,1,3.23-3.23h10.25a3.23,3.23,0,0,1,3.23,3.23v11.16a1.46,1.46,0,0,0,1.46,1.46h11.16a3.24,3.24,0,0,1,3.23,3.24ZM238,214.85a1.52,1.52,0,0,1-1.52,1.52h-9.13a1.52,1.52,0,0,1-1.52-1.52v-9.14a1.52,1.52,0,0,1,1.52-1.51h9.13a1.52,1.52,0,0,1,1.52,1.51Zm57.54-36.55a6.77,6.77,0,1,1-6.77,6.77A6.77,6.77,0,0,1,295.54,178.3Zm-23.72,31.53a6.77,6.77,0,1,1,6.76,6.77A6.76,6.76,0,0,1,271.82,209.83Zm26.46,63.38a19.13,19.13,0,1,1,19.13-19.12A19.12,19.12,0,0,1,298.28,273.21Zm18.34-51.87a11.51,11.51,0,1,1,11.51-11.51A11.51,11.51,0,0,1,316.62,221.34Zm25,22.14A11.51,11.51,0,1,1,353.14,232,11.51,11.51,0,0,1,341.63,243.48Zm0-44.28a11.51,11.51,0,1,1,11.51-11.51A11.51,11.51,0,0,1,341.63,199.2Zm26,22.14a11.51,11.51,0,1,1,11.51-11.51A11.51,11.51,0,0,1,367.6,221.34Z"/><path class="cls-1" d="M276.5,100.7l-.3,5.6-46.5,16.41L214.55,75.57l4.54-3.48c2.9,13.74,10,24.64,20.85,30.07S263.78,106.66,276.5,100.7Z"/><path class="cls-2" d="M238.57,337c7.06,22.22,16.25,35.65,26.29,35.65,22.25,0,40.29-65.89,40.29-147.16s-18-147.16-40.29-147.16c-9.73,0-18.66,12.61-25.62,33.6"/></svg>