<svg id="Layer_1" data-name="Layer 1" xmlns="http://www.w3.org/2000/svg" viewBox="0 0 512 512"><defs><style>.cls-1{fill:#fff;}.cls-2{fill:none;stroke:#fff;stroke-miterlimit:10;stroke-width:15px;}</style></defs><path class="cls-1" d="M166.58,152l5.7,1,28-41.77L156.6,85.89,152,89.54c13.12,5.91,22.34,15.22,25.12,27.08S175.72,140.91,166.58,152Z"/><path class="cls-2" d="M178.51,113.14a131.27,131.27,0,0,0-97.94,157.7"/><path class="cls-1" d="M342,152l-5.71,1-28-41.77L352,85.89l4.63,3.65c-13.11,5.91-22.34,15.22-25.11,27.08S332.88,140.91,342,152Z"/><path class="cls-2" d="M330.09,113.14A131.27,131.27,0,0,1,428,270.84"/><path class="cls-1" d="M397.06,310.84c-8.78-55.82-19-125.27-31.4-129.67-6-10.9-9.76-21.12-52-23-4.52.12-13.44,6.1-13.44,6.1-45.86-1.35-42.52-1.34-88.37,0,0,0-8.88-6-13.4-6.09-42.12,1.88-45.88,12-51.87,22.84-10.39,4.36-17.7,43.25-25.07,88.62-2.18,13.41-4.36,27.39-6.63,41.2a52.84,52.84,0,0,0,1.67,21.37c3.61,18.26,28.31,31.63,43.52,11.71l19.37-37.56s4.89-10.57,16.82-10.57H315.68c11.93,0,16.82,10.57,16.82,10.57l19.37,37.56c8.1,12.64,25.26,10.92,31.59,5.86C396,341.31,398.44,324.71,397.06,310.84ZM223.11,195.22a5.36,5.36,0,1,1-5.36,5.36A5.36,5.36,0,0,1,223.11,195.22Zm-39.24,40.14A15.16,15.16,0,1,1,199,220.21,15.15,15.15,0,0,1,183.87,235.36ZM234.28,260a2.56,2.56,0,0,1-2.56,2.56h-8.84a1.16,1.16,0,0,0-1.16,1.16v8.84a2.55,2.55,0,0,1-2.56,2.56H211a2.56,2.56,0,0,1-2.56-2.56v-8.84a1.16,1.16,0,0,0-1.16-1.16h-8.84a2.56,2.56,0,0,1-2.56-2.56v-8.12a2.55,2.55,0,0,1,2.56-2.56h8.84a1.16,1.16,0,0,0,1.16-1.16v-8.84a2.57,2.57,0,0,1,2.56-2.57h8.12a2.56,2.56,0,0,1,2.56,2.57v8.84a1.16,1.16,0,0,0,1.16,1.16h8.84a2.55,2.55,0,0,1,2.56,2.56Zm7.45-35.85a1.2,1.2,0,0,1-1.2,1.2h-7.25a1.2,1.2,0,0,1-1.2-1.2v-7.24a1.2,1.2,0,0,1,1.2-1.2h7.25a1.2,1.2,0,0,1,1.2,1.2Zm45.6-29a5.36,5.36,0,1,1-5.36,5.36A5.36,5.36,0,0,1,287.33,195.22Zm-18.8,25a5.36,5.36,0,1,1,5.36,5.36A5.36,5.36,0,0,1,268.53,220.21Zm21,50.22a15.16,15.16,0,1,1,15.16-15.15A15.15,15.15,0,0,1,289.5,270.43ZM304,229.33a9.13,9.13,0,1,1,9.12-9.12A9.12,9.12,0,0,1,304,229.33Zm19.82,17.54a9.12,9.12,0,1,1,9.12-9.12A9.12,9.12,0,0,1,323.85,246.87Zm0-35.09a9.12,9.12,0,1,1,9.12-9.12A9.12,9.12,0,0,1,323.85,211.78Zm20.58,17.55a9.13,9.13,0,1,1,9.12-9.12A9.12,9.12,0,0,1,344.43,229.33Z"/></svg>