<svg xmlns="http://www.w3.org/2000/svg" xmlns:xlink="http://www.w3.org/1999/xlink" viewBox="0 0 4096 2160"><defs><style>.cls-1{fill:#f55a55;}.cls-1,.cls-10,.cls-11,.cls-12,.cls-13,.cls-14,.cls-15,.cls-16,.cls-17,.cls-18,.cls-19,.cls-2,.cls-20,.cls-22,.cls-3,.cls-4,.cls-5,.cls-6,.cls-7,.cls-8,.cls-9{stroke:#000;}.cls-1,.cls-10,.cls-11,.cls-13,.cls-14,.cls-15,.cls-16,.cls-17,.cls-18,.cls-19,.cls-2,.cls-20,.cls-22,.cls-3,.cls-4,.cls-5,.cls-6,.cls-7,.cls-8,.cls-9{stroke-width:7px;}.cls-12,.cls-15,.cls-16,.cls-17,.cls-18,.cls-19,.cls-2,.cls-20,.cls-22,.cls-3,.cls-4,.cls-5,.cls-6,.cls-7,.cls-8,.cls-9{stroke-miterlimit:10;}.cls-2{fill:url(#radial-gradient);}.cls-3{fill:url(#radial-gradient-2);}.cls-4{fill:url(#radial-gradient-3);}.cls-5{fill:url(#radial-gradient-4);}.cls-6{fill:url(#radial-gradient-5);}.cls-7{fill:url(#radial-gradient-6);}.cls-10,.cls-8{fill:none;}.cls-9{fill:url(#radial-gradient-7);}.cls-11,.cls-12{fill:#231f20;}.cls-13{fill:#404041;}.cls-14{fill:#09bae3;}.cls-15{fill:url(#radial-gradient-8);}.cls-16{fill:url(#radial-gradient-9);}.cls-17{fill:url(#radial-gradient-10);}.cls-18{fill:url(#radial-gradient-11);}.cls-19{fill:url(#radial-gradient-12);}.cls-20{fill:url(#radial-gradient-13);}.cls-21{fill:#d0d2d3;}.cls-22{fill:url(#radial-gradient-14);}</style><radialGradient id="radial-gradient" cx="1429.66" cy="1028.67" r="41.93" gradientUnits="userSpaceOnUse"><stop offset="0.22" stop-color="#1c1c1c"/><stop offset="1" stop-color="#121212"/></radialGradient><radialGradient id="radial-gradient-2" cx="1429.66" cy="1214.98" r="41.93" xlink:href="#radial-gradient"/><radialGradient id="radial-gradient-3" cx="1333.51" cy="1121.82" r="41.93" xlink:href="#radial-gradient"/><radialGradient id="radial-gradient-4" cx="1526.82" cy="1121.82" r="41.93" xlink:href="#radial-gradient"/><radialGradient id="radial-gradient-5" cx="1554.23" cy="587.94" r="24.4" xlink:href="#radial-gradient"/><radialGradient id="radial-gradient-6" cx="1499.55" cy="1357.29" r="33.73" xlink:href="#radial-gradient"/><radialGradient id="radial-gradient-7" cx="1430.16" cy="778.64" r="91.38" xlink:href="#radial-gradient"/><radialGradient id="radial-gradient-8" cx="2669.47" cy="687.26" r="41.93" xlink:href="#radial-gradient"/><radialGradient id="radial-gradient-9" cx="2669.47" cy="873.57" r="41.93" xlink:href="#radial-gradient"/><radialGradient id="radial-gradient-10" cx="2573.31" cy="780.42" r="41.93" xlink:href="#radial-gradient"/><radialGradient id="radial-gradient-11" cx="2766.62" cy="780.42" r="41.93" xlink:href="#radial-gradient"/><radialGradient id="radial-gradient-12" cx="2547.24" cy="588.74" r="32.24" xlink:href="#radial-gradient"/><radialGradient id="radial-gradient-13" cx="2601.52" cy="1355.63" r="43.63" xlink:href="#radial-gradient"/><radialGradient id="radial-gradient-14" cx="2669.91" cy="1121.82" r="91.38" xlink:href="#radial-gradient"/></defs><g id="Layer_1" data-name="Layer 1"><path class="cls-1" d="M1221.6,1447.2V726.8s-.28-4.74,0-12.94c-.72-137.16,71.63-196.84,142.27-224.94a298.94,298.94,0,0,1,110.57-20.84h140.85a6.14,6.14,0,0,1,6.07,6.21V1699.71a6.14,6.14,0,0,1-6.07,6.21c-33.32,0-187.09,0-175.85,0C1370.22,1698.87,1206.22,1622.63,1221.6,1447.2Z"/><circle class="cls-2" cx="1429.66" cy="1028.67" r="41.93"/><circle class="cls-3" cx="1429.66" cy="1214.98" r="41.93"/><circle class="cls-4" cx="1333.51" cy="1121.82" r="41.93"/><circle class="cls-5" cx="1526.82" cy="1121.82" r="41.93"/><rect class="cls-6" x="1521.55" y="576.87" width="65.37" height="22.15" rx="3.34"/><rect class="cls-7" x="1465.82" y="1323.56" width="67.46" height="67.46" rx="7.91"/><circle class="cls-8" cx="1499.55" cy="1356.91" r="21.97"/><circle class="cls-9" cx="1430.16" cy="778.64" r="91.38"/><circle class="cls-10" cx="1430.16" cy="778.64" r="69.39"/><line class="cls-11" x1="1430.16" y1="709.25" x2="1430.16" y2="687.26"/><line class="cls-11" x1="1499.55" y1="778.64" x2="1521.55" y2="778.64"/><line class="cls-11" x1="1430.16" y1="848.04" x2="1430.16" y2="870.03"/><line class="cls-11" x1="1360.77" y1="778.64" x2="1338.78" y2="778.64"/><path class="cls-12" d="M1428.23,1013.27l-15.52,25.3a1.91,1.91,0,0,0,1.62,2.9h31a1.9,1.9,0,0,0,1.62-2.9l-15.51-25.3A1.9,1.9,0,0,0,1428.23,1013.27Z"/><path class="cls-12" d="M1431.47,1232.22l15.51-25.31a1.9,1.9,0,0,0-1.62-2.89h-31a1.9,1.9,0,0,0-1.62,2.89l15.52,25.31A1.9,1.9,0,0,0,1431.47,1232.22Z"/><path class="cls-12" d="M1315.37,1124.36l25.31,15.52a1.9,1.9,0,0,0,2.89-1.62v-31a1.9,1.9,0,0,0-2.89-1.62l-25.31,15.51A1.9,1.9,0,0,0,1315.37,1124.36Z"/><path class="cls-12" d="M1543.33,1121.12,1518,1105.61a1.9,1.9,0,0,0-2.89,1.62v31a1.9,1.9,0,0,0,2.89,1.62l25.31-15.52A1.9,1.9,0,0,0,1543.33,1121.12Z"/><path class="cls-13" d="M1474.67,468.08a299,299,0,0,0-110.57,20.84c-51.85,20.63-104.62,58.27-128.74,131.08h-7.88c21.92-81.35,84.09-118.69,116.74-135.52,33.7-17.37,82.55-30.41,129.45-30.41H1540v14Z"/><path class="cls-13" d="M1622.54,541.26h12.64V537h22.15V719.68l-7.51,20.18-.4,8.3,1.53.39a8.42,8.42,0,0,1,6.38,8.17v84.59a8.43,8.43,0,0,1-6.56,8.22l-1.35.3,7.91,24.14v349.32l-8.7,23.73,5.23,3.81a8.42,8.42,0,0,1,3.47,6.81v83.07a8.43,8.43,0,0,1-4.65,7.54l-4,2,8.7,26.91v205.71h-15.82l-7.12-9.89v-43.12h-14.22Z"/><line class="cls-10" x1="1649.42" y1="748.16" x2="1649.42" y2="849.83"/><line class="cls-10" x1="1648.63" y1="1247.02" x2="1648.63" y2="1350.27"/><path class="cls-14" d="M2874.4,1447.2V726.8s.28-4.74,0-12.94c.72-137.16-71.63-196.84-142.27-224.94a298.94,298.94,0,0,0-110.57-20.84H2480.71a6.14,6.14,0,0,0-6.07,6.21V1699.71a6.14,6.14,0,0,0,6.07,6.21c33.32,0,187.09,0,175.85,0C2725.78,1698.87,2889.78,1622.63,2874.4,1447.2Z"/><circle class="cls-15" cx="2669.47" cy="687.26" r="41.93"/><circle class="cls-16" cx="2669.47" cy="873.57" r="41.93"/><circle class="cls-17" cx="2573.31" cy="780.42" r="41.93"/><circle class="cls-18" cx="2766.62" cy="780.42" r="41.93"/><path class="cls-19" d="M2576.61,578.85H2560a2.87,2.87,0,0,1-2.87-2.87V559.36a2.88,2.88,0,0,0-2.87-2.87h-14a2.87,2.87,0,0,0-2.87,2.87V576a2.88,2.88,0,0,1-2.87,2.87h-16.62a2.86,2.86,0,0,0-2.86,2.86v14a2.87,2.87,0,0,0,2.86,2.87h16.62a2.87,2.87,0,0,1,2.87,2.86v16.62a2.87,2.87,0,0,0,2.87,2.87h14a2.88,2.88,0,0,0,2.87-2.87V601.49a2.86,2.86,0,0,1,2.87-2.86h16.61a2.88,2.88,0,0,0,2.87-2.87v-14A2.87,2.87,0,0,0,2576.61,578.85Z"/><circle class="cls-20" cx="2601.52" cy="1355.63" r="43.63"/><polygon class="cls-8" points="2602.52 1334.05 2582.82 1351.36 2585.72 1351.36 2585.72 1375.2 2602.52 1375.2 2619.31 1375.2 2619.31 1351.36 2622.22 1351.36 2602.52 1334.05"/><rect class="cls-12" x="2595.46" y="1354.63" width="14.12" height="12.81"/><polygon class="cls-21" points="2682.54 670.75 2676.27 670.7 2669.25 681.98 2662.24 670.7 2655.96 670.75 2665.75 686.89 2654.33 705.48 2660.61 705.53 2669.25 691.8 2677.9 705.53 2684.17 705.48 2672.76 686.89 2682.54 670.75"/><polygon class="cls-21" points="2580.31 765.76 2571.86 777.52 2563.41 765.76 2556.27 765.75 2569.01 783.42 2569.01 798.57 2574.71 798.57 2574.71 783.42 2587.45 765.75 2580.31 765.76"/><path class="cls-21" d="M2677.9,872.34c1.41-1.3,2.68-5,2.68-6.75a10.79,10.79,0,0,0-2.35-6.5,7.69,7.69,0,0,0-6.17-3h-13.89v35.06h15.15l.19,0c2.9-.39,8.43-2.3,8.6-9.84A10.41,10.41,0,0,0,2677.9,872.34Zm-5-10.55s2.1.83,2.1,4.2a4.37,4.37,0,0,1-3.14,4.21h-8v-8.41Zm0,23.64h-9V875.9h8.4s4.12,1.07,4.12,4.77C2676.4,884.72,2673.66,885.26,2672.87,885.43Z"/><path class="cls-21" d="M2770,761.45h-5l-15.12,34.06,6-.1,3.9-8.64h15.29l3.5,7.83,6,.11Zm-7.61,19.61,5.11-11.31,5.06,11.31Z"/><circle class="cls-22" cx="2669.91" cy="1121.82" r="91.38"/><circle class="cls-10" cx="2669.91" cy="1121.82" r="69.39"/><line class="cls-11" x1="2669.91" y1="1052.43" x2="2669.91" y2="1030.44"/><line class="cls-11" x1="2739.3" y1="1121.82" x2="2761.29" y2="1121.82"/><line class="cls-11" x1="2669.91" y1="1213.21" x2="2669.91" y2="1191.22"/><line class="cls-11" x1="2600.52" y1="1121.82" x2="2578.53" y2="1121.82"/><path class="cls-13" d="M2621.56,468.08a298.94,298.94,0,0,1,110.57,20.84C2784,509.55,2836.76,547.19,2860.88,620h7.87c-21.91-81.35-84.08-118.69-116.74-135.52-33.69-17.37-82.54-30.41-129.45-30.41h-66.29v14Z"/><path class="cls-13" d="M2472.27,541.26h-12.64V537h-22.15V719.68l7.52,20.18.39,8.3-1.53.39a8.42,8.42,0,0,0-6.38,8.17v84.59a8.43,8.43,0,0,0,6.56,8.22l1.35.3L2437.48,874v349.32l8.7,23.73-5.23,3.81a8.42,8.42,0,0,0-3.47,6.81v83.07a8.42,8.42,0,0,0,4.66,7.54l4,2-8.7,26.91v205.71h15.82l7.12-9.89v-43.12h14.22Z"/><line class="cls-10" x1="2445.39" y1="748.16" x2="2445.39" y2="849.83"/><line class="cls-10" x1="2446.18" y1="1247.02" x2="2446.18" y2="1350.27"/></g></svg>