<svg id="Layer_1" data-name="Layer 1" xmlns="http://www.w3.org/2000/svg" viewBox="0 0 512 512"><defs><style>.cls-1{fill:none;stroke:#000;stroke-miterlimit:10;stroke-width:15px;}</style></defs><path d="M276.5,156.27l-.3,5.59-46.5,16.41-15.15-47.13,4.54-3.48c2.9,13.74,10,24.63,20.85,30.06S263.78,162.22,276.5,156.27Z"/><path class="cls-1" d="M242.63,357c6.2,19.5,14.26,31.29,23.08,31.29,19.54,0,35.37-57.85,35.37-129.2s-15.83-129.21-35.37-129.21c-8.54,0-16.38,11.07-22.49,29.5"/><path d="M396.31,252.09V215.71A13.28,13.28,0,0,0,383,202.46H129a13.28,13.28,0,0,0-13.28,13.25v29.21a73.66,73.66,0,0,0,5.17,27.35c9.64,24.26,29.47,37.06,57.36,37.06h.25c1.45.05,2.51,0,3.12,0H330.17c1.78.14,3.51.21,5.21.21,38.87,0,58.79-35.8,60.87-56.15h0c0-.41.07-.83.08-1.26m-94.48-28.47a10.93,10.93,0,1,1-10.93,10.93A10.92,10.92,0,0,1,301.83,223.66Zm-89.42,56.15A23.81,23.81,0,1,1,236.22,256,23.81,23.81,0,0,1,212.41,279.81Zm68.92-12.75a10.93,10.93,0,1,1,10.93-10.93A10.93,10.93,0,0,1,281.33,267.06Zm20.5,21.28a10.93,10.93,0,1,1,10.92-10.93A10.93,10.93,0,0,1,301.83,288.34Zm20.5-21.28a10.93,10.93,0,1,1,10.92-10.93A10.93,10.93,0,0,1,322.33,267.06Z"/></svg>