<svg id="Layer_1" data-name="Layer 1" xmlns="http://www.w3.org/2000/svg" viewBox="0 0 4096 2160"><defs><style>.cls-1,.cls-2,.cls-4{stroke:#fff;}.cls-1,.cls-2{stroke-miterlimit:10;}.cls-1{stroke-width:8px;}.cls-2,.cls-4{fill:none;}.cls-2{stroke-width:7px;}.cls-3{fill:#fff;}.cls-4{stroke-width:4px;}</style></defs><path class="cls-1" d="M2906,1450.71a324.11,324.11,0,0,0-2.44-40.45q-3.27-26.61-8.06-53.23c-53.82-362.57-118-683.66-169-728a145.64,145.64,0,0,1-35.6-18.2c-43.07-43.91-147.53-67.61-260.35-80.32l-5.36-.59-.63-.07c-40.61-4.44-82.18-7.47-122.27-9.53l-2.29-.11-.87,0c-119.32-6-224.74-3.51-251.08-3.87h-.56c-26.34.36-131.77-2.14-251.08,3.87l-.87,0-2.3.11c-40.08,2.06-81.65,5.09-122.27,9.53l-.62.07-5.36.59c-112.82,12.71-217.28,36.41-260.35,80.32A145.64,145.64,0,0,1,1369,629c-52.36,45.54-118.58,382.55-173.24,756.74q-2.3,12.12-3.84,24.52a326.06,326.06,0,0,0-2.43,40.46,308.86,308.86,0,0,0,12.54,89.17c11.86,40.14,33.39,82.87,72.42,106.6,0,0,35.41,24.13,81.28,24.25,34.35.24,74.66-12.93,110.36-59.85L1583.57,1383s29.67-64.09,102.07-64.09H2409.8c72.4,0,102.07,64.09,102.07,64.09l117.49,227.87c35.7,46.92,76,60.09,110.36,59.85,45.87-.12,81.28-24.25,81.28-24.25,39-23.73,60.56-66.46,72.42-106.6A308.88,308.88,0,0,0,2906,1450.71Z"/><path class="cls-1" d="M1404.59,610.8c43.07-43.91,147.53-67.61,260.35-80.32l5.36-.59.62-.07c39.26-4.29,79.4-7.26,118.24-9.31C1759,511,1719,487.24,1719,487.24l-20-3.16c-210.46-1.59-285.89,86-285.89,86l-28.81,52.62A132.91,132.91,0,0,0,1404.59,610.8Z"/><circle class="cls-2" cx="2501.16" cy="725.13" r="60.13"/><circle class="cls-2" cx="2501.16" cy="956.47" r="60.13"/><circle class="cls-2" cx="2370.5" cy="840.8" r="60.13"/><circle class="cls-2" cx="2636.83" cy="840.8" r="60.13"/><circle class="cls-2" cx="2274.71" cy="1072" r="99.91"/><circle class="cls-2" cx="2274.71" cy="1072" r="70.64"/><circle class="cls-2" cx="1578.38" cy="840.8" r="99.91"/><circle class="cls-2" cx="1578.38" cy="840.8" r="70.64"/><path class="cls-2" d="M1740.6,967v58.28a7.64,7.64,0,0,1-7.64,7.65h-58.29a16.88,16.88,0,0,0-16.88,16.88v53.54a16.88,16.88,0,0,0,16.88,16.88H1733a7.64,7.64,0,0,1,7.64,7.65v58.28a16.88,16.88,0,0,0,16.88,16.88H1811a16.88,16.88,0,0,0,16.88-16.88v-58.28a7.65,7.65,0,0,1,7.65-7.65h58.29a16.87,16.87,0,0,0,16.87-16.88v-53.54a16.87,16.87,0,0,0-16.87-16.88h-58.29a7.65,7.65,0,0,1-7.65-7.65V967A16.88,16.88,0,0,0,1811,950.1h-53.54A16.88,16.88,0,0,0,1740.6,967Z"/><rect class="cls-2" x="1896.21" y="811.37" width="63.56" height="63.56" rx="7.91"/><circle class="cls-2" cx="1927.99" cy="842.8" r="20.7"/><circle class="cls-2" cx="1837.08" cy="711.42" r="35.34"/><circle class="cls-2" cx="2171.81" cy="840.8" r="35.34"/><line class="cls-2" x1="1819.2" y1="711.42" x2="1856.12" y2="711.42"/><circle class="cls-2" cx="2260.38" cy="711.42" r="35.34"/><line class="cls-2" x1="2242.5" y1="711.42" x2="2279.43" y2="711.42"/><line class="cls-2" x1="2260.96" y1="729.88" x2="2260.96" y2="692.96"/><polygon class="cls-2" points="2171.53 819.41 2153.45 835.29 2156.12 835.29 2156.12 857.16 2171.53 857.16 2186.94 857.16 2186.94 835.29 2189.6 835.29 2171.53 819.41"/><rect class="cls-3" x="2165.05" y="838.29" width="12.96" height="11.76"/><path class="cls-3" d="M2009,572.34a34.66,34.66,0,0,0-27.49,25.26c-1.22,4.69-1.3,7.44-1.16,43.84.08,33.42.11,34.2.66,36.78,3.08,13.91,13,23.82,27,27.09,1.84.42,4.17.5,19.19.59,15.54.11,17.15.08,17.57-.34s.44-5.77.44-66.51c0-45-.08-66.24-.27-66.63s-.75-.53-17-.5C2014.73,572,2010.76,572,2009,572.34ZM2034.14,639v56.24l-11.3-.14c-10.41-.11-11.52-.17-13.6-.69a23.56,23.56,0,0,1-17.44-18.16c-.61-2.8-.61-71.87,0-74.62a23.83,23.83,0,0,1,14.38-17.19c3.66-1.47,5.35-1.63,17.24-1.66l10.74,0Z"/><path class="cls-3" d="M2011.4,599.68a14.92,14.92,0,0,0-5.83,2.92,12.29,12.29,0,0,0-4.13,10.33,8.81,8.81,0,0,0,1.13,4.55,12.67,12.67,0,0,0,6,6,8.56,8.56,0,0,0,4.75,1.11,10.15,10.15,0,0,0,4.44-.49,12.55,12.55,0,0,0,8.64-13.89A12.76,12.76,0,0,0,2011.4,599.68Z"/><path class="cls-3" d="M2058.76,572.09c-.11.08-.19,30.17-.19,66.88,0,60.54,0,66.68.44,66.84.75.28,22.3.17,25-.11a34.62,34.62,0,0,0,26.62-18.32,41.36,41.36,0,0,0,2.09-4.86c1.74-5.22,1.69-3.83,1.69-43.72,0-31.84-.06-36.59-.45-38.62a34.45,34.45,0,0,0-28.26-27.87c-1.94-.33-4.94-.42-14.6-.42C2064.4,571.89,2058.85,572,2058.76,572.09Zm29.65,60.46a13.58,13.58,0,0,1,9.33,8.66,14.46,14.46,0,0,1,0,8.83,13.46,13.46,0,0,1-25.65-.66,16,16,0,0,1,.11-7.83A13.49,13.49,0,0,1,2088.41,632.55Z"/><path class="cls-3" d="M2134.72,726.08a8.94,8.94,0,0,0-6.14,10,8.85,8.85,0,0,0,14.6,5.25,8.22,8.22,0,0,0,3-6.67,8.33,8.33,0,0,0-2.53-6.35A9.5,9.5,0,0,0,2134.72,726.08Zm4.91,4a5.17,5.17,0,0,1-.36,9.3c-3.72,1.56-7.94-2-6.88-5.88a4.64,4.64,0,0,1,2.58-3.39A5.3,5.3,0,0,1,2139.63,730.13Z"/><path class="cls-3" d="M1948.63,734.71v8.5l1.75-.09,1.72-.08.14-5.36.14-5.35,4,5.41,4,5.44,1.67-.06,1.66-.08V726.38l-1.72-.08-1.75-.08v11l-4.08-5.46-4.11-5.47h-3.47Z"/><path class="cls-3" d="M1976.4,734.71v8.47h3.6V726.25h-3.6Z"/><path class="cls-3" d="M1992.64,726.61c-.09.19-.11,4-.09,8.38l.09,8,1.75.08,1.72.09V732l4.16,5.61,4.16,5.61h3.34V726.25h-3.61l-.06,5.33-.08,5.33-4-5.33-4-5.33h-1.64C1993.33,726.25,1992.72,726.36,1992.64,726.61Z"/><path class="cls-3" d="M2019.62,726.44a5.1,5.1,0,0,0-.19,1.8v1.62H2025v13.32h3.61V729.86h5.27v-3.61h-7A69.86,69.86,0,0,0,2019.62,726.44Z"/><path class="cls-3" d="M2046.08,734.71v8.47h13v-3.33h-9.71V736h8.88v-3.05h-8.88v-3.33l4.8-.06,4.78-.08.08-1.61.08-1.58h-13.07Z"/><path class="cls-3" d="M2072.87,726.61c-.09.19-.12,4-.09,8.38l.09,8,1.74.08,1.73.09V732l4.16,5.61,4.16,5.61H2088V726.25h-3.61l-.06,5.33-.08,5.33-4-5.33-4-5.33h-1.64C2073.56,726.25,2073,726.36,2072.87,726.61Z"/><path class="cls-3" d="M2102.15,734.69v8.49h3.7c4.27,0,6.3-.42,8.13-1.69a8.3,8.3,0,0,0-1.5-14.49c-1.14-.53-1.91-.62-5.8-.7l-4.53-.11Zm9.08-4.31a4.91,4.91,0,0,1,2.17,6.53c-.89,1.83-2.7,2.66-5.86,2.66h-2.05v-9.71h2.3A8.33,8.33,0,0,1,2111.23,730.38Z"/><path class="cls-3" d="M2093.77,750.7a16.86,16.86,0,0,0-9.66,28.57,15,15,0,0,0,7.66,4.44,16.73,16.73,0,0,0,14.49-2.91c1.64-1.22,3.78-3.61,3.61-4,0-.11-1.19-1.14-2.55-2.33l-2.45-2.14-.75,1a10.14,10.14,0,0,1-15,1,12.19,12.19,0,0,1-1.86-2.55c-.7-1.33-.78-1.75-.78-4.25s.08-3,.69-4.16a10.09,10.09,0,0,1,11.55-5.28,10.84,10.84,0,0,1,5.22,3.28l.94,1.14,1.23-1c.66-.53,1.83-1.56,2.58-2.22l1.39-1.25-1.09-1.34A17.09,17.09,0,0,0,2093.77,750.7Z"/><path class="cls-3" d="M1956.46,751.79c-6.6,1.75-10,6.16-8.55,11.16,1.06,3.69,4.56,5.49,13.86,7.16,6.24,1.11,8.07,2,8.07,4,0,1.36-.8,2.36-2.55,3.16-1.5.7-1.83.75-5.61.75-4.47,0-6.22-.36-9.52-1.86a9.17,9.17,0,0,0-2-.75c-.33.42-3,5.33-2.89,5.39a45.54,45.54,0,0,0,6.55,2.41,39.21,39.21,0,0,0,12.91.39c6.22-1.17,9.3-4,9.58-8.83.22-4-.89-6-4.3-7.8-2.45-1.28-4.56-1.89-9.94-3-4.69-.91-6-1.36-7-2.28a2.19,2.19,0,0,1,0-3.13c2-2,9.16-2.08,14.71-.14a4.3,4.3,0,0,0,1.86.36,51.07,51.07,0,0,0,2.2-5.19c0-.25-4.25-1.5-6.64-1.94A30.18,30.18,0,0,0,1956.46,751.79Z"/><path class="cls-3" d="M1980.12,752c.08.28,2,7.19,4.33,15.35s4.24,15.08,4.33,15.33c.14.44.58.5,4,.5h3.86l.31-1.06c2.75-9.94,5.52-19.26,5.66-18.93s1.39,4.77,2.89,10.13l2.72,9.72,3.89.08,3.88.08,4.42-15.49c2.41-8.52,4.44-15.65,4.52-15.85s-.69-.33-3.38-.33h-3.47l-.39,1.3c-.23.75-1.56,5.75-3,11.11s-2.67,9.8-2.78,9.8-1.39-4.22-2.89-9.39-3-10.13-3.27-11.1l-.53-1.75-2.83.08-2.83.09-3.25,11.1c-1.78,6.11-3.25,11.16-3.28,11.25s-1.27-4.42-2.75-10-2.88-10.66-3-11.33l-.33-1.16h-3.47C1980.25,751.51,1980,751.54,1980.12,752Z"/><path class="cls-3" d="M2032.75,767.33v15.83H2040l-.06-15.77-.08-15.74-3.53-.09-3.55-.08Z"/><path class="cls-3" d="M2047.46,755v3.47h10v24.71h6.94V758.45l4.94-.06,4.91-.08v-6.66l-13.38-.09-13.41,0Z"/><path class="cls-3" d="M2117.14,767.33v15.83h6.67v-12.5h14.71v12.5h6.66l0-15.77-.09-15.74-3.24-.09-3.28-.08V764h-14.71V751.51h-6.67Z"/><path class="cls-1" d="M2424.51,529.82l.63.07,5.36.59c112.82,12.71,217.28,36.41,260.35,80.32a135.13,135.13,0,0,0,22.22,12.74l-29.3-53.49s-75.43-87.56-285.89-86l-20,3.16s-40.23,23.87-70.39,33.34C2345.93,522.63,2385.65,525.57,2424.51,529.82Z"/><polygon class="cls-3" points="2517.78 705.01 2510.08 704.94 2501.48 718.78 2492.88 704.94 2485.19 705.01 2497.18 724.8 2483.18 747.6 2490.88 747.67 2501.48 730.82 2512.09 747.67 2519.78 747.6 2505.78 724.8 2517.78 705.01"/><polygon class="cls-3" points="2379.87 821.4 2369.51 835.82 2359.14 821.4 2350.39 821.39 2366.01 843.06 2366.01 861.64 2373.01 861.64 2373.01 843.06 2388.63 821.39 2379.87 821.4"/><path class="cls-3" d="M2512.15,955.6c1.73-1.59,3.3-6.13,3.3-8.29a13.27,13.27,0,0,0-2.89-8,9.46,9.46,0,0,0-7.57-3.7h-17v43h18.57l.24,0c3.55-.48,10.33-2.82,10.54-12.07C2517.42,961.65,2515.1,957.51,2512.15,955.6Zm-6.15-13s2.57,1,2.58,5.16a5.38,5.38,0,0,1-3.86,5.16H2495V942.65Zm0,29h-11V960h10.3s5.06,1.3,5.06,5.84C2510.32,970.78,2507,971.44,2506,971.65Z"/><path class="cls-3" d="M2640.32,818.44h-6.11l-18.54,41.77,7.38-.12,4.78-10.6h18.76l4.29,9.6,7.39.14Zm-9.33,24,6.26-13.87,6.21,13.87Z"/><path class="cls-4" d="M1287.24,862.64S1507.74,1212,1633,1332"/><path class="cls-4" d="M2810.12,862.64S2589.62,1212,2464.33,1332"/><path class="cls-3" d="M1784.9,1174.15l10.48-17.11a1.28,1.28,0,0,0-1.09-2h-21a1.28,1.28,0,0,0-1.1,2l10.49,17.11A1.29,1.29,0,0,0,1784.9,1174.15Z"/><path class="cls-3" d="M1782.71,979l-10.49,17.11a1.28,1.28,0,0,0,1.1,1.95h21a1.28,1.28,0,0,0,1.09-1.95L1784.9,979A1.29,1.29,0,0,0,1782.71,979Z"/><path class="cls-3" d="M1882.89,1075.47l-17.1-10.49a1.28,1.28,0,0,0-2,1.09v21a1.28,1.28,0,0,0,2,1.09l17.1-10.48A1.28,1.28,0,0,0,1882.89,1075.47Z"/><path class="cls-3" d="M1685.61,1077.66l17.1,10.48a1.28,1.28,0,0,0,2-1.09v-21a1.28,1.28,0,0,0-2-1.09l-17.1,10.49A1.28,1.28,0,0,0,1685.61,1077.66Z"/></svg>