<svg id="Layer_1" data-name="Layer 1" xmlns="http://www.w3.org/2000/svg" xmlns:xlink="http://www.w3.org/1999/xlink" viewBox="0 0 4096 2160"><defs><style>.cls-1{fill:#383638;}.cls-1,.cls-10,.cls-11,.cls-12,.cls-13,.cls-14,.cls-15,.cls-16,.cls-17,.cls-2,.cls-4,.cls-5,.cls-6,.cls-7,.cls-8,.cls-9{stroke:#000;}.cls-1,.cls-10,.cls-11,.cls-12,.cls-13,.cls-14,.cls-15,.cls-16,.cls-17,.cls-19,.cls-2,.cls-3,.cls-4,.cls-5,.cls-6,.cls-7,.cls-8,.cls-9{stroke-width:7px;}.cls-2,.cls-3{fill:#404041;}.cls-10,.cls-11,.cls-12,.cls-13,.cls-14,.cls-15,.cls-16,.cls-17,.cls-2,.cls-3,.cls-4,.cls-5,.cls-6,.cls-7,.cls-8,.cls-9{stroke-miterlimit:10;}.cls-19,.cls-20,.cls-3{stroke:#231f20;}.cls-4{fill:url(#radial-gradient);}.cls-5{fill:url(#radial-gradient-2);}.cls-6{fill:url(#radial-gradient-3);}.cls-7{fill:url(#radial-gradient-4);}.cls-8{fill:url(#radial-gradient-5);}.cls-9{fill:url(#radial-gradient-6);}.cls-10,.cls-19,.cls-20{fill:none;}.cls-11{fill:url(#radial-gradient-7);}.cls-12{fill:url(#radial-gradient-8);}.cls-13{fill:url(#radial-gradient-9);}.cls-14{fill:url(#radial-gradient-10);}.cls-15{fill:url(#radial-gradient-11);}.cls-16{fill:url(#radial-gradient-12);}.cls-17{fill:url(#radial-gradient-13);}.cls-18{fill:#d0d2d3;}.cls-20{stroke-width:4px;}</style><radialGradient id="radial-gradient" cx="1586.24" cy="551.99" r="151.32" gradientUnits="userSpaceOnUse"><stop offset="0.15" stop-color="#212121"/><stop offset="0.57" stop-color="#1e1e1e"/><stop offset="0.88" stop-color="#151515"/><stop offset="1" stop-color="#0f0f0f"/></radialGradient><radialGradient id="radial-gradient-2" cx="2500.71" cy="723.76" r="60.13" gradientUnits="userSpaceOnUse"><stop offset="0.22" stop-color="#1c1c1c"/><stop offset="1" stop-color="#121212"/></radialGradient><radialGradient id="radial-gradient-3" cx="2500.71" cy="955.1" r="60.13" xlink:href="#radial-gradient-2"/><radialGradient id="radial-gradient-4" cx="2370.05" cy="839.43" r="60.13" xlink:href="#radial-gradient-2"/><radialGradient id="radial-gradient-5" cx="2636.38" cy="839.43" r="60.13" xlink:href="#radial-gradient-2"/><radialGradient id="radial-gradient-6" cx="2274.26" cy="1070.63" r="99.91" gradientUnits="userSpaceOnUse"><stop offset="0.15" stop-color="#212121"/><stop offset="1" stop-color="#0f0f0f"/></radialGradient><radialGradient id="radial-gradient-7" cx="1577.93" cy="839.43" r="99.91" xlink:href="#radial-gradient-6"/><radialGradient id="radial-gradient-8" cx="1783.8" cy="1075.19" r="126.46" gradientUnits="userSpaceOnUse"><stop offset="0.15" stop-color="#212121"/><stop offset="0.55" stop-color="#1c1c1c"/><stop offset="1" stop-color="#0f0f0f"/></radialGradient><radialGradient id="radial-gradient-9" cx="1927.54" cy="841.78" r="31.78" gradientUnits="userSpaceOnUse"><stop offset="0.15" stop-color="#1a1a1a"/><stop offset="0.49" stop-color="#131313"/><stop offset="1" stop-color="#0f0f0f"/></radialGradient><radialGradient id="radial-gradient-10" cx="1836.63" cy="710.05" r="35.34" xlink:href="#radial-gradient-9"/><radialGradient id="radial-gradient-11" cx="2171.36" cy="839.43" r="35.34" xlink:href="#radial-gradient-9"/><radialGradient id="radial-gradient-12" cx="2259.93" cy="710.05" r="35.34" xlink:href="#radial-gradient-9"/><radialGradient id="radial-gradient-13" cx="2509.81" cy="552.43" r="151.65" xlink:href="#radial-gradient"/></defs><path class="cls-1" d="M2905.51,1449.34a324.38,324.38,0,0,0-2.44-40.46q-3.27-26.61-8.06-53.22c-53.82-362.57-118-683.66-169-728a145.64,145.64,0,0,1-35.6-18.2c-43.07-43.92-147.53-67.61-260.35-80.32l-5.36-.6-.63-.07c-40.61-4.43-82.18-7.46-122.27-9.52l-2.29-.12-.87,0c-119.32-6-224.74-3.51-251.08-3.87H2047c-26.34.36-131.77-2.14-251.08,3.87l-.87,0-2.3.12c-40.08,2.06-81.65,5.09-122.27,9.52l-.62.07-5.36.6c-112.82,12.71-217.28,36.4-260.35,80.32a145.64,145.64,0,0,1-35.6,18.2c-52.36,45.54-118.58,382.55-173.24,756.74q-2.29,12.12-3.84,24.51a326.29,326.29,0,0,0-2.43,40.46,308.76,308.76,0,0,0,12.54,89.17c11.86,40.15,33.38,82.88,72.42,106.61,0,0,35.41,24.13,81.28,24.25,34.35.24,74.66-12.93,110.36-59.85l117.49-227.87s29.67-64.09,102.07-64.09h724.16c72.4,0,102.07,64.09,102.07,64.09l117.49,227.87c35.7,46.92,76,60.09,110.36,59.85,45.87-.12,81.28-24.25,81.28-24.25,39-23.73,60.55-66.46,72.42-106.61A309.1,309.1,0,0,0,2905.51,1449.34Z"/><path class="cls-2" d="M1287.36,861.17c-31.42,139.2-63.33,325.56-92.06,522.2q-2.29,12.12-3.84,24.51a326.29,326.29,0,0,0-2.43,40.46,308.76,308.76,0,0,0,12.54,89.17c11.86,40.15,33.38,82.88,72.42,106.61,0,0,35.41,24.12,81.28,24.25,34.35.24,74.66-12.93,110.36-59.85l117.49-227.87s14.94-32.24,49.45-51C1511,1213.14,1299.68,880.62,1287.36,861.17Z"/><path class="cls-2" d="M1286.79,860.27l.57.9,0-.1Z"/><path class="cls-3" d="M2807.18,861.17c31.42,139.2,63.33,325.56,92.06,522.2q2.3,12.12,3.83,24.51a324.38,324.38,0,0,1,2.44,40.46,309.1,309.1,0,0,1-12.54,89.17c-11.87,40.15-33.39,82.88-72.42,106.61,0,0-35.41,24.12-81.28,24.25-34.36.24-74.66-12.93-110.36-59.85l-117.49-227.87s-14.94-32.24-49.46-51C2583.57,1213.14,2794.86,880.62,2807.18,861.17Z"/><path class="cls-3" d="M2807.75,860.27l-.57.9,0-.1Z"/><path class="cls-4" d="M1404.14,609.43c43.07-43.92,147.53-67.61,260.35-80.32l5.36-.6.62-.07c39.26-4.28,79.4-7.25,118.24-9.3-30.14-9.51-70.18-33.27-70.18-33.27l-20-3.17c-210.46-1.58-285.89,86-285.89,86l-28.81,52.61A133.44,133.44,0,0,0,1404.14,609.43Z"/><circle class="cls-5" cx="2500.71" cy="723.76" r="60.13"/><circle class="cls-6" cx="2500.71" cy="955.1" r="60.13"/><circle class="cls-7" cx="2370.05" cy="839.43" r="60.13"/><circle class="cls-8" cx="2636.38" cy="839.43" r="60.13"/><circle class="cls-9" cx="2274.26" cy="1070.63" r="99.91"/><circle class="cls-10" cx="2274.26" cy="1070.63" r="70.64"/><circle class="cls-11" cx="1577.93" cy="839.43" r="99.91"/><circle class="cls-10" cx="1577.93" cy="839.43" r="70.64"/><path class="cls-12" d="M1740.15,965.61v58.28a7.64,7.64,0,0,1-7.64,7.65h-58.29a16.88,16.88,0,0,0-16.88,16.88V1102a16.88,16.88,0,0,0,16.88,16.88h58.29a7.64,7.64,0,0,1,7.64,7.65v58.28a16.88,16.88,0,0,0,16.88,16.88h53.54a16.88,16.88,0,0,0,16.88-16.88v-58.28a7.65,7.65,0,0,1,7.65-7.65h58.28a16.88,16.88,0,0,0,16.88-16.88v-53.54a16.88,16.88,0,0,0-16.88-16.88H1835.1a7.65,7.65,0,0,1-7.65-7.65V965.61a16.88,16.88,0,0,0-16.88-16.88H1757A16.88,16.88,0,0,0,1740.15,965.61Z"/><rect class="cls-13" x="1895.76" y="810" width="63.56" height="63.56" rx="7.91"/><circle class="cls-10" cx="1927.54" cy="841.43" r="20.7"/><circle class="cls-14" cx="1836.63" cy="710.05" r="35.34"/><circle class="cls-15" cx="2171.36" cy="839.43" r="35.34"/><line class="cls-10" x1="1818.75" y1="710.05" x2="1855.67" y2="710.05"/><circle class="cls-16" cx="2259.93" cy="710.05" r="35.34"/><line class="cls-10" x1="2242.05" y1="710.05" x2="2278.98" y2="710.05"/><line class="cls-10" x1="2260.51" y1="728.51" x2="2260.51" y2="691.58"/><polygon class="cls-10" points="2171.08 818.04 2153 833.91 2155.67 833.91 2155.67 855.79 2171.08 855.79 2186.49 855.79 2186.49 833.91 2189.15 833.91 2171.08 818.04"/><rect x="2164.6" y="836.91" width="12.96" height="11.76"/><path d="M2008.56,571a34.64,34.64,0,0,0-27.48,25.26c-1.22,4.69-1.3,7.44-1.16,43.83.08,33.43.11,34.21.66,36.79,3.08,13.91,13,23.82,27,27.09,1.84.42,4.17.5,19.19.59,15.54.11,17.15.08,17.57-.34s.44-5.77.44-66.51c0-45-.08-66.24-.27-66.63s-.75-.53-17-.5C2014.28,570.58,2010.31,570.66,2008.56,571Zm25.13,66.62v56.25l-11.3-.14c-10.41-.11-11.52-.17-13.6-.7a23.54,23.54,0,0,1-17.44-18.15c-.61-2.81-.61-71.88,0-74.62A23.83,23.83,0,0,1,2005.71,583c3.66-1.47,5.35-1.64,17.24-1.66l10.74,0Z"/><path d="M2011,598.31a14.78,14.78,0,0,0-5.83,2.92,12.27,12.27,0,0,0-4.13,10.32,8.82,8.82,0,0,0,1.13,4.56,12.67,12.67,0,0,0,6,6,8.54,8.54,0,0,0,4.75,1.11,10,10,0,0,0,4.44-.5,12.53,12.53,0,0,0,8.64-13.88A12.76,12.76,0,0,0,2011,598.31Z"/><path d="M2058.31,570.72c-.11.08-.19,30.17-.19,66.87,0,60.55,0,66.69.44,66.85.75.28,22.29.17,25-.11A34.65,34.65,0,0,0,2110.14,686a42.09,42.09,0,0,0,2.09-4.86c1.74-5.22,1.69-3.83,1.69-43.72,0-31.85-.06-36.59-.45-38.62a34.46,34.46,0,0,0-28.26-27.87c-1.94-.33-4.94-.42-14.6-.42C2064,570.52,2058.4,570.61,2058.31,570.72ZM2088,631.18a13.58,13.58,0,0,1,9.33,8.66,14.46,14.46,0,0,1,0,8.83,13.46,13.46,0,0,1-25.65-.67,16,16,0,0,1,.11-7.83A13.48,13.48,0,0,1,2088,631.18Z"/><path d="M2134.27,724.71a8.94,8.94,0,0,0-6.14,10,8.85,8.85,0,0,0,14.6,5.24,8.19,8.19,0,0,0,3-6.66,8.34,8.34,0,0,0-2.52-6.36A9.52,9.52,0,0,0,2134.27,724.71Zm4.91,4a5.17,5.17,0,0,1-.36,9.3c-3.72,1.56-7.94-2-6.88-5.88a4.62,4.62,0,0,1,2.58-3.39A5.3,5.3,0,0,1,2139.18,728.76Z"/><path d="M1948.18,733.34v8.5l1.75-.09,1.72-.08.14-5.36.14-5.36,4,5.42,4,5.44,1.67-.06,1.66-.08V725l-1.72-.08-1.75-.08v11l-4.08-5.47-4.11-5.47h-3.47Z"/><path d="M1976,733.34v8.47h3.6V724.87H1976Z"/><path d="M1992.19,725.23c-.09.2-.12,4-.09,8.39l.09,8,1.74.08,1.73.09V730.59l4.16,5.61,4.16,5.61h3.34V724.87h-3.61l-.06,5.33-.08,5.33-4-5.33-4-5.33H1994C1992.88,724.87,1992.27,725,1992.19,725.23Z"/><path d="M2019.17,725.07a5.05,5.05,0,0,0-.19,1.8v1.61h5.55v13.33h3.61V728.48h5.27v-3.61h-7A68.16,68.16,0,0,0,2019.17,725.07Z"/><path d="M2045.63,733.34v8.47h13v-3.33H2049v-3.89h8.88v-3.05H2049v-3.33l4.8-.06,4.77-.08.09-1.61.08-1.59h-13.07Z"/><path d="M2072.42,725.23c-.09.2-.12,4-.09,8.39l.09,8,1.74.08,1.73.09V730.59l4.16,5.61,4.16,5.61h3.34V724.87h-3.61l-.06,5.33-.08,5.33-4-5.33-4-5.33h-1.64C2073.11,724.87,2072.5,725,2072.42,725.23Z"/><path d="M2101.7,733.31v8.5h3.7c4.27,0,6.3-.42,8.13-1.7a8.3,8.3,0,0,0-1.5-14.49c-1.14-.52-1.91-.61-5.8-.69l-4.53-.11Zm9.08-4.3a4.9,4.9,0,0,1,2.17,6.52c-.89,1.84-2.7,2.67-5.86,2.67H2105v-9.72h2.31A8.3,8.3,0,0,1,2110.78,729Z"/><path d="M2093.32,749.33a16.86,16.86,0,0,0-9.66,28.57,15.08,15.08,0,0,0,7.66,4.44,16.74,16.74,0,0,0,14.49-2.92c1.64-1.22,3.78-3.6,3.61-4-.05-.11-1.19-1.14-2.55-2.33l-2.45-2.14-.75,1a10.14,10.14,0,0,1-15,1,12.19,12.19,0,0,1-1.86-2.55c-.7-1.34-.78-1.75-.78-4.25s.08-3,.69-4.16a10.08,10.08,0,0,1,11.55-5.28,10.7,10.7,0,0,1,5.22,3.28l.94,1.13,1.23-1c.66-.53,1.83-1.56,2.58-2.23l1.39-1.25-1.09-1.33A17.09,17.09,0,0,0,2093.32,749.33Z"/><path d="M1956,750.41c-6.6,1.75-10,6.17-8.55,11.16,1.06,3.7,4.56,5.5,13.86,7.17,6.24,1.11,8.07,2,8.07,4,0,1.36-.8,2.36-2.55,3.17-1.5.69-1.83.75-5.61.75-4.47,0-6.22-.36-9.52-1.86a8.58,8.58,0,0,0-2-.75c-.33.42-3,5.33-2.89,5.38a44.14,44.14,0,0,0,6.55,2.42,39.49,39.49,0,0,0,12.91.39c6.22-1.17,9.3-4,9.58-8.83.22-4-.89-6-4.3-7.8-2.45-1.28-4.56-1.89-9.94-3-4.69-.92-6-1.36-7-2.28a2.19,2.19,0,0,1,0-3.13c2-2,9.16-2.09,14.71-.14a4.3,4.3,0,0,0,1.86.36,52,52,0,0,0,2.2-5.19c0-.25-4.25-1.5-6.64-2A30.65,30.65,0,0,0,1956,750.41Z"/><path d="M1979.67,750.61c.08.28,2,7.19,4.33,15.35s4.24,15.07,4.33,15.32c.14.45.58.5,4,.5h3.86l.31-1c2.75-9.94,5.52-19.27,5.66-18.93s1.39,4.77,2.89,10.13l2.72,9.72,3.89.08,3.88.08,4.42-15.49c2.41-8.52,4.44-15.66,4.52-15.85s-.69-.33-3.38-.33h-3.47l-.39,1.3c-.23.75-1.56,5.75-3,11.11s-2.67,9.8-2.78,9.8-1.39-4.22-2.89-9.39-3-10.13-3.27-11.1l-.53-1.75-2.83.08-2.83.09-3.25,11.1c-1.78,6.11-3.25,11.16-3.28,11.24s-1.27-4.41-2.75-10-2.88-10.66-3-11.33l-.33-1.16H1983C1979.8,750.14,1979.53,750.16,1979.67,750.61Z"/><path d="M2032.3,766v15.82h7.22l-.06-15.76-.08-15.74-3.53-.09-3.55-.08Z"/><path d="M2047,753.61v3.47h10v24.7H2064v-24.7l4.94-.06,4.91-.08v-6.66l-13.38-.09-13.41-.05Z"/><path d="M2116.69,766v15.82h6.67V769.29h14.71v12.49h6.66l-.05-15.76-.09-15.74-3.24-.09-3.28-.08v12.52h-14.71V750.14h-6.67Z"/><path class="cls-17" d="M2424.06,528.44l.63.07,5.36.6c112.82,12.71,217.28,36.4,260.35,80.32a136,136,0,0,0,22.22,12.74l-29.3-53.49s-75.43-87.56-285.89-86l-20,3.17s-40.23,23.86-70.39,33.33C2345.48,521.25,2385.2,524.2,2424.06,528.44Z"/><polygon class="cls-18" points="2517.33 703.63 2509.63 703.57 2501.03 717.41 2492.43 703.57 2484.74 703.63 2496.73 723.43 2482.73 746.23 2490.43 746.29 2501.03 729.45 2511.64 746.29 2519.33 746.23 2505.33 723.43 2517.33 703.63"/><polygon class="cls-18" points="2379.42 820.03 2369.06 834.45 2358.69 820.03 2349.93 820.01 2365.56 841.69 2365.56 860.27 2372.56 860.27 2372.56 841.69 2388.18 820.01 2379.42 820.03"/><path class="cls-18" d="M2511.7,954.23c1.73-1.59,3.29-6.13,3.29-8.29a13.26,13.26,0,0,0-2.88-8,9.44,9.44,0,0,0-7.57-3.7h-17v43h18.57l.24,0c3.55-.48,10.33-2.82,10.54-12.07C2517,960.28,2514.65,956.14,2511.7,954.23Zm-6.15-13s2.57,1,2.58,5.16a5.39,5.39,0,0,1-3.86,5.16h-9.76V941.28Zm0,29h-11V958.6h10.3s5.06,1.3,5.06,5.84C2509.87,969.41,2506.51,970.07,2505.54,970.28Z"/><path class="cls-18" d="M2639.87,817.07h-6.11l-18.54,41.77,7.38-.12,4.78-10.6h18.76l4.29,9.6,7.39.14Zm-9.33,24,6.26-13.88,6.21,13.88Z"/><path class="cls-18" d="M1784.45,1172.77l10.48-17.1a1.28,1.28,0,0,0-1.09-2h-21a1.29,1.29,0,0,0-1.1,2l10.49,17.1A1.28,1.28,0,0,0,1784.45,1172.77Z"/><path class="cls-18" d="M1782.26,977.6l-10.49,17.11a1.28,1.28,0,0,0,1.1,1.95h21a1.28,1.28,0,0,0,1.09-1.95l-10.48-17.11A1.29,1.29,0,0,0,1782.26,977.6Z"/><path class="cls-18" d="M1882.44,1074.09l-17.1-10.48a1.28,1.28,0,0,0-1.95,1.09v21a1.28,1.28,0,0,0,1.95,1.1l17.1-10.49A1.28,1.28,0,0,0,1882.44,1074.09Z"/><path class="cls-18" d="M1685.16,1076.28l17.1,10.49a1.29,1.29,0,0,0,2-1.1v-21a1.28,1.28,0,0,0-2-1.09l-17.1,10.48A1.28,1.28,0,0,0,1685.16,1076.28Z"/><path class="cls-19" d="M1286.79,861.27s220.5,349.35,345.78,469.39"/><path class="cls-20" d="M2809.67,861.27s-220.5,349.35-345.79,469.39"/></svg>