<svg id="Layer_1" data-name="Layer 1" xmlns="http://www.w3.org/2000/svg" xmlns:xlink="http://www.w3.org/1999/xlink" viewBox="0 0 4096 2160"><defs><style>.cls-1{fill:#f55a55;}.cls-1,.cls-10,.cls-11,.cls-12,.cls-13,.cls-14,.cls-15,.cls-16,.cls-17,.cls-2,.cls-3,.cls-4,.cls-5,.cls-6,.cls-7,.cls-8,.cls-9{stroke:#000;}.cls-1,.cls-10,.cls-11,.cls-13,.cls-14,.cls-15,.cls-16,.cls-17,.cls-2,.cls-3,.cls-4,.cls-5,.cls-6,.cls-7,.cls-8,.cls-9{stroke-width:7px;}.cls-12,.cls-2,.cls-3,.cls-4,.cls-5,.cls-6,.cls-7,.cls-8,.cls-9{stroke-miterlimit:10;}.cls-2{fill:url(#radial-gradient);}.cls-3{fill:url(#radial-gradient-2);}.cls-4{fill:url(#radial-gradient-3);}.cls-5{fill:url(#radial-gradient-4);}.cls-6{fill:url(#radial-gradient-5);}.cls-7{fill:url(#radial-gradient-6);}.cls-10,.cls-8{fill:none;}.cls-9{fill:url(#radial-gradient-7);}.cls-11,.cls-12{fill:#231f20;}.cls-13{fill:#404041;}.cls-14{fill:url(#linear-gradient);}.cls-15{fill:url(#linear-gradient-2);}.cls-16{fill:url(#linear-gradient-3);}.cls-17{fill:url(#linear-gradient-4);}</style><radialGradient id="radial-gradient" cx="1996.67" cy="1158.2" r="41.93" gradientUnits="userSpaceOnUse"><stop offset="0.22" stop-color="#1c1c1c"/><stop offset="1" stop-color="#121212"/></radialGradient><radialGradient id="radial-gradient-2" cx="2182.98" cy="1158.2" r="41.93" xlink:href="#radial-gradient"/><radialGradient id="radial-gradient-3" cx="2089.82" cy="1254.36" r="41.93" xlink:href="#radial-gradient"/><radialGradient id="radial-gradient-4" cx="2089.82" cy="1061.05" r="41.93" xlink:href="#radial-gradient"/><radialGradient id="radial-gradient-5" cx="1555.94" cy="1033.63" r="24.4" gradientTransform="translate(2589.58 -522.31) rotate(90)" xlink:href="#radial-gradient"/><radialGradient id="radial-gradient-6" cx="2325.29" cy="1088.31" r="33.73" gradientTransform="translate(3413.6 -1236.98) rotate(90)" xlink:href="#radial-gradient"/><radialGradient id="radial-gradient-7" cx="1746.64" cy="1157.7" r="91.38" xlink:href="#radial-gradient"/><linearGradient id="linear-gradient" x1="2042.13" y1="959.5" x2="2042.13" y2="820.94" gradientUnits="userSpaceOnUse"><stop offset="0" stop-color="#1c1c1c"/><stop offset="1" stop-color="#111"/></linearGradient><linearGradient id="linear-gradient-2" x1="1760.58" y1="828.85" x2="1760.58" y2="793.25" xlink:href="#linear-gradient"/><linearGradient id="linear-gradient-3" x1="2254.48" y1="826.22" x2="2254.48" y2="792.72" xlink:href="#linear-gradient"/><linearGradient id="linear-gradient-4" x1="2607.1" y1="882.44" x2="2607.1" y2="829.34" gradientUnits="userSpaceOnUse"><stop offset="0" stop-color="#fff"/><stop offset="1"/></linearGradient></defs><path class="cls-1" d="M2415.2,1366.27H1694.8s-4.74.28-12.94,0C1544.7,1367,1485,1294.64,1456.92,1224a299,299,0,0,1-20.84-110.57V972.57a6.13,6.13,0,0,1,6.21-6.06H2667.71a6.13,6.13,0,0,1,6.21,6.06c0,33.32,0,187.1,0,175.86C2666.87,1217.64,2590.63,1381.64,2415.2,1366.27Z"/><circle class="cls-2" cx="1996.67" cy="1158.2" r="41.93"/><circle class="cls-3" cx="2182.98" cy="1158.2" r="41.93"/><circle class="cls-4" cx="2089.82" cy="1254.36" r="41.93"/><circle class="cls-5" cx="2089.82" cy="1061.05" r="41.93"/><rect class="cls-6" x="1523.26" y="1022.56" width="65.37" height="22.15" rx="3.34" transform="translate(522.31 2589.58) rotate(-90)"/><rect class="cls-7" x="2291.56" y="1054.58" width="67.46" height="67.46" rx="7.91" transform="translate(1236.98 3413.6) rotate(-90)"/><circle class="cls-8" cx="2324.91" cy="1088.31" r="21.97"/><circle class="cls-9" cx="1746.64" cy="1157.7" r="91.38"/><circle class="cls-10" cx="1746.64" cy="1157.7" r="69.39"/><line class="cls-11" x1="1677.25" y1="1157.7" x2="1655.26" y2="1157.7"/><line class="cls-11" x1="1746.64" y1="1088.31" x2="1746.64" y2="1066.32"/><line class="cls-11" x1="1816.04" y1="1157.7" x2="1838.03" y2="1157.7"/><line class="cls-11" x1="1746.64" y1="1227.1" x2="1746.64" y2="1249.09"/><path class="cls-12" d="M1981.27,1159.64l25.3,15.51a1.9,1.9,0,0,0,2.9-1.62v-31a1.9,1.9,0,0,0-2.9-1.62l-25.3,15.52A1.9,1.9,0,0,0,1981.27,1159.64Z"/><path class="cls-12" d="M2200.22,1156.4l-25.31-15.52a1.9,1.9,0,0,0-2.89,1.62v31a1.9,1.9,0,0,0,2.89,1.62l25.31-15.51A1.9,1.9,0,0,0,2200.22,1156.4Z"/><path class="cls-12" d="M2092.36,1272.49l15.52-25.3a1.9,1.9,0,0,0-1.62-2.89h-31a1.89,1.89,0,0,0-1.62,2.89l15.51,25.3A1.9,1.9,0,0,0,2092.36,1272.49Z"/><path class="cls-12" d="M2089.12,1044.54l-15.51,25.3a1.9,1.9,0,0,0,1.62,2.9h31a1.91,1.91,0,0,0,1.62-2.9l-15.52-25.3A1.9,1.9,0,0,0,2089.12,1044.54Z"/><path class="cls-13" d="M1436.08,1113.19a298.94,298.94,0,0,0,20.84,110.57c20.63,51.85,58.27,104.63,131.08,128.75v7.87c-81.35-21.91-118.69-84.08-135.52-116.74-17.37-33.69-30.41-82.54-30.41-129.44v-66.3h14Z"/><path class="cls-14" d="M1432.32,948c6.73-32.32,26.91-116.14,122-123.91h117.23l10.08,4.74H1804l42.19-7.91h320.12l29.11,5.28h110.73l39-5.28h184.62s48,8.44,58,22.16l46.42,51.48h0a10,10,0,0,1,9.3,6.41l8.63,22.61-4.22,6.33s-37.45-8.89-40.61,29.57H1441.67A9.54,9.54,0,0,1,1432.32,948Z"/><path class="cls-15" d="M1673.94,825.25V804.46a11.21,11.21,0,0,1,11.21-11.21H1836a11.21,11.21,0,0,1,11.21,11.21v16.48L1804,828.85H1681.59Z"/><path class="cls-16" d="M2169.08,821.45v-19a9.76,9.76,0,0,1,9.76-9.76h151.28a9.76,9.76,0,0,1,9.76,9.76v18.46l-33.76,5.28H2195.39Z"/><path class="cls-17" d="M2593.17,849.06V835.73a6.37,6.37,0,0,1,8.8-5.9l10.12,4.15A14.38,14.38,0,0,1,2621,847.3v35.14"/><polyline class="cls-8" points="2248.43 743.46 2248.43 646.81 2440.54 454.7"/><polyline class="cls-8" points="1755.35 743.46 1755.35 646.81 1563.25 454.7"/><polyline class="cls-8" points="1645.15 1237.5 1460.36 1422.29 1093.55 1422.29"/><polyline class="cls-8" points="2145.45 1215.51 2352.23 1422.29 2890.28 1422.29"/><polyline class="cls-8" points="1514.85 1008.95 1497.05 992.95 1208.29 992.96"/></svg>