<svg id="Layer_1" data-name="Layer 1" xmlns="http://www.w3.org/2000/svg" viewBox="0 0 512 512"><defs><style>.cls-1{fill:#fff;}</style></defs><path class="cls-1" d="M256,86.35A169.65,169.65,0,1,0,425.65,256,169.66,169.66,0,0,0,256,86.35Zm0,320.52c-83.19,0-150.87-67.68-150.87-150.87S172.81,105.13,256,105.13,406.87,172.81,406.87,256,339.19,406.87,256,406.87Z"/><path class="cls-1" d="M256,128.11A127.89,127.89,0,1,0,383.89,256,128,128,0,0,0,256,128.11Zm9.26,135.21v64.19h-24V263.32l-53.55-74.9,30,.07,35.53,49.8,35.52-49.8,30-.07Z"/></svg>