<svg id="Layer_1" data-name="Layer 1" xmlns="http://www.w3.org/2000/svg" viewBox="0 0 4096 2160"><defs><style>.cls-1,.cls-2{fill:none;}.cls-1,.cls-2,.cls-3,.cls-5{stroke:#fff;}.cls-1,.cls-2,.cls-5{stroke-width:7px;}.cls-2,.cls-3{stroke-miterlimit:10;}.cls-3,.cls-4,.cls-5{fill:#fff;}</style></defs><circle class="cls-1" cx="2440.74" cy="1143.67" r="41.93"/><circle class="cls-1" cx="2254.43" cy="1143.67" r="41.93"/><circle class="cls-1" cx="2347.58" cy="1047.52" r="41.93"/><circle class="cls-1" cx="2347.58" cy="1240.83" r="41.93"/><path class="cls-1" d="M2549.15,1050.82V1034.2a2.88,2.88,0,0,1,2.87-2.87h16.62a2.87,2.87,0,0,0,2.87-2.86v-14.05a2.88,2.88,0,0,0-2.87-2.87H2552a2.87,2.87,0,0,1-2.87-2.86V992.07a2.87,2.87,0,0,0-2.86-2.87h-14.05a2.88,2.88,0,0,0-2.87,2.87v16.62a2.86,2.86,0,0,1-2.86,2.86h-16.62a2.88,2.88,0,0,0-2.87,2.87v14.05a2.87,2.87,0,0,0,2.87,2.86h16.62a2.87,2.87,0,0,1,2.86,2.87v16.62a2.88,2.88,0,0,0,2.87,2.87h14.05A2.87,2.87,0,0,0,2549.15,1050.82Z"/><circle class="cls-1" cx="1772.37" cy="1075.72" r="43.63"/><polygon class="cls-2" points="1793.95 1076.72 1776.64 1057.02 1776.64 1059.93 1752.8 1059.93 1752.8 1076.72 1752.8 1093.52 1776.64 1093.52 1776.64 1096.43 1793.95 1076.72"/><rect class="cls-3" x="1760.56" y="1069.67" width="12.81" height="14.12"/><polygon class="cls-4" points="2457.25 1156.75 2457.3 1150.47 2446.02 1143.46 2457.3 1136.45 2457.25 1130.17 2441.11 1139.95 2422.52 1128.54 2422.47 1134.82 2436.2 1143.46 2422.47 1152.11 2422.52 1158.38 2441.11 1146.97 2457.25 1156.75"/><polygon class="cls-4" points="2362.24 1054.52 2350.48 1046.07 2362.24 1037.62 2362.25 1030.47 2344.58 1043.21 2329.43 1043.21 2329.43 1048.92 2344.58 1048.92 2362.25 1061.66 2362.24 1054.52"/><path class="cls-4" d="M2255.66,1152.1c1.3,1.42,5,2.69,6.75,2.69a10.85,10.85,0,0,0,6.5-2.35,7.69,7.69,0,0,0,3-6.17v-13.89h-35.06v15.14l0,.19c.39,2.9,2.3,8.43,9.84,8.6A10.41,10.41,0,0,0,2255.66,1152.1Zm10.55-5s-.83,2.1-4.2,2.1a4.37,4.37,0,0,1-4.21-3.14v-8h8.41Zm-23.64,0v-9h9.53v8.4s-1.07,4.12-4.77,4.12C2243.28,1150.61,2242.74,1147.87,2242.57,1147.08Z"/><path class="cls-4" d="M2366.55,1244.23v-5l-34.06-15.13.1,6,8.64,3.9v15.3l-7.83,3.5-.11,6Zm-19.61-7.6,11.31,5.1-11.31,5.06Z"/><circle class="cls-1" cx="2006.18" cy="1144.12" r="91.38"/><circle class="cls-1" cx="2006.18" cy="1144.12" r="69.39"/><line class="cls-5" x1="2075.57" y1="1144.12" x2="2097.56" y2="1144.12"/><line class="cls-5" x1="2006.18" y1="1213.51" x2="2006.18" y2="1235.5"/><line class="cls-5" x1="1914.79" y1="1144.12" x2="1936.78" y2="1144.12"/><line class="cls-5" x1="2006.18" y1="1074.72" x2="2006.18" y2="1052.73"/><path class="cls-1" d="M1680.8,1348.61h720.4s4.74.28,12.94,0c137.16.72,196.84-71.63,224.94-142.27a299,299,0,0,0,20.84-110.57V954.91a6.13,6.13,0,0,0-6.21-6.06H1428.29a6.14,6.14,0,0,0-6.21,6.06c0,33.33,0,187.1,0,175.86C1429.13,1200,1505.37,1364,1680.8,1348.61Z"/><path class="cls-1" d="M2659.92,1095.77a299,299,0,0,1-20.84,110.57c-20.63,51.85-58.27,104.62-131.08,128.74V1343c81.35-21.92,118.69-84.08,135.52-116.74,17.37-33.7,30.41-82.55,30.41-129.45v-66.29h-14Z"/><path class="cls-1" d="M2659.72,928.91c-6.74-32.31-26.92-116.13-122-123.91H2420.52l-10.07,4.75H2288.07l-42.2-7.91H1925.75l-29.1,5.27H1785.92l-39-5.27H1562.27s-48,8.44-58,22.15l-46.42,51.49h0a10,10,0,0,0-9.3,6.41l-8.63,22.6,4.22,6.33s37.45-8.89,40.61,29.58H2650.37A9.55,9.55,0,0,0,2659.72,928.91Z"/><path class="cls-1" d="M2418.09,806.15V785.36a11.2,11.2,0,0,0-11.21-11.21H2256a11.21,11.21,0,0,0-11.21,11.21v16.48l43.25,7.91h122.38Z"/><path class="cls-1" d="M1923,802.34v-19a9.76,9.76,0,0,0-9.76-9.76H1761.92a9.76,9.76,0,0,0-9.76,9.76v18.46l33.76,5.27h110.73Z"/><path class="cls-1" d="M1498.87,830V816.62a6.38,6.38,0,0,0-8.8-5.9L1480,814.87a14.4,14.4,0,0,0-8.93,13.32v35.15"/><polyline class="cls-2" points="2326.41 743.46 2326.41 646.81 2518.52 454.7"/><polyline class="cls-2" points="1833.34 743.46 1833.34 646.81 1641.23 454.7"/><polyline class="cls-2" points="1914.79 1235.5 1730 1420.29 1363.19 1420.29"/><polyline class="cls-2" points="2421.1 1213.51 2627.88 1420.29 3165.92 1420.29"/><polyline class="cls-2" points="2573.17 988.12 2590.97 972.12 2879.74 972.13"/></svg>