<svg id="Layer_1" data-name="Layer 1" xmlns="http://www.w3.org/2000/svg" viewBox="0 0 512 512"><defs><style>.cls-1,.cls-2{fill:none;stroke:#000;}.cls-1{stroke-miterlimit:10;stroke-width:15px;}.cls-2{stroke-width:24px;}</style></defs><path d="M166.58,190l5.7,1,28-41.78-43.71-25.3L152,127.54c13.12,5.9,22.34,15.21,25.12,27.07S175.72,178.9,166.58,190Z"/><path class="cls-1" d="M178.51,157.42c-70.59,14.06-114.44,74.21-97.94,134.35"/><path d="M342,190l-5.71,1-28-41.78,43.7-25.3,4.63,3.66c-13.11,5.9-22.34,15.21-25.11,27.07S332.88,178.9,342,190Z"/><path class="cls-1" d="M330.09,157.42c70.59,14.06,114.44,74.21,97.94,134.35"/><path class="cls-2" d="M330.67,297.33H181.32s-1,.06-2.68,0c-28.43.15-40.81-14.85-46.63-29.49a61.86,61.86,0,0,1-4.32-22.92V215.71a1.26,1.26,0,0,1,1.28-1.25H383a1.27,1.27,0,0,1,1.29,1.25c0,6.91,0,38.79,0,36.46C382.85,266.52,367,300.52,330.67,297.33Z"/><circle cx="277.16" cy="256.1" r="8.69"/><circle cx="309.78" cy="256.1" r="8.69"/><circle cx="293.47" cy="273.04" r="8.69"/><circle cx="293.47" cy="238.96" r="8.69"/><circle cx="222.32" cy="256" r="18.95"/></svg>