<svg id="Layer_1" data-name="Layer 1" xmlns="http://www.w3.org/2000/svg" viewBox="0 0 512 512"><defs><style>.cls-1,.cls-2{fill:none;stroke:#000;}.cls-1{stroke-miterlimit:10;stroke-width:15px;}.cls-2{stroke-width:24px;}</style></defs><path d="M276.5,156.27l-.3,5.59-46.5,16.41-15.15-47.13,4.54-3.48c2.9,13.74,10,24.63,20.85,30.06S263.78,162.22,276.5,156.27Z"/><path class="cls-1" d="M242.63,357c6.2,19.5,14.26,31.29,23.08,31.29,19.54,0,35.37-57.85,35.37-129.2s-15.83-129.21-35.37-129.21c-8.54,0-16.38,11.07-22.49,29.5"/><path class="cls-2" d="M330.67,297.33H181.32s-1,.06-2.68,0c-28.43.15-40.81-14.85-46.63-29.49a61.86,61.86,0,0,1-4.32-22.92V215.71a1.26,1.26,0,0,1,1.28-1.25H383a1.27,1.27,0,0,1,1.29,1.25c0,6.91,0,38.79,0,36.46C382.85,266.52,367,300.52,330.67,297.33Z"/><circle cx="277.16" cy="256.1" r="8.69"/><circle cx="309.78" cy="256.1" r="8.69"/><circle cx="293.47" cy="273.04" r="8.69"/><circle cx="293.47" cy="238.96" r="8.69"/><circle cx="222.32" cy="256" r="18.95"/></svg>