<svg id="Layer_1" data-name="Layer 1" xmlns="http://www.w3.org/2000/svg" viewBox="0 0 512 512"><defs><style>.cls-1,.cls-2{fill:none;stroke:#000;stroke-miterlimit:10;}.cls-1{stroke-width:15px;}.cls-2{stroke-width:24px;}</style></defs><path d="M276.5,100.7l-.3,5.6-46.5,16.41L214.55,75.57l4.54-3.48c2.9,13.74,10,24.64,20.85,30.07S263.78,106.66,276.5,100.7Z"/><path class="cls-1" d="M238.57,337c7.06,22.22,16.25,35.65,26.29,35.65,22.25,0,40.29-65.89,40.29-147.16s-18-147.16-40.29-147.16c-9.73,0-18.66,12.61-25.62,33.6"/><path class="cls-2" d="M421.12,319.86c-10.28-65.32-22.2-146.6-36.74-151.75-7-12.75-11.43-24.71-60.8-26.9-5.29.13-15.73,7.14-15.73,7.14-53.67-1.58-49.75-1.57-103.41,0,0,0-10.39-7-15.68-7.13-49.29,2.2-53.7,14.08-60.7,26.73-12.16,5.1-20.72,50.61-29.34,103.7-2.55,15.69-5.11,32.05-7.76,48.22a62.11,62.11,0,0,0,2,25c4.23,21.37,33.14,37,50.94,13.7l22.66-43.95s5.72-12.37,19.69-12.37H325.88c14,0,19.69,12.37,19.69,12.37l22.66,43.95c9.48,14.8,29.56,12.78,37,6.87C419.83,355.51,422.73,336.09,421.12,319.86Zm-293-152,.72-.36Zm.84-.42c.25-.13.5-.26.72-.39Zm.76-.41.59-.34Zm254.58,1-.85-.42Z"/><circle cx="341.67" cy="188.37" r="11.51"/><circle cx="341.67" cy="232.65" r="11.51"/><circle cx="316.65" cy="210.51" r="11.51"/><circle cx="367.63" cy="210.51" r="11.51"/><circle cx="298.32" cy="254.77" r="19.12"/><circle cx="165.04" cy="210.51" r="19.12"/><path d="M196.09,234.66v11.16a1.46,1.46,0,0,1-1.47,1.46H183.47a3.23,3.23,0,0,0-3.23,3.23v10.25a3.22,3.22,0,0,0,3.23,3.23h11.15a1.47,1.47,0,0,1,1.47,1.47v11.15a3.22,3.22,0,0,0,3.23,3.23h10.25a3.23,3.23,0,0,0,3.23-3.23V265.46a1.46,1.46,0,0,1,1.46-1.47h11.16a3.23,3.23,0,0,0,3.23-3.23V250.51a3.23,3.23,0,0,0-3.23-3.23H214.26a1.46,1.46,0,0,1-1.46-1.46V234.66a3.23,3.23,0,0,0-3.23-3.23H199.32A3.23,3.23,0,0,0,196.09,234.66Z"/><rect x="225.87" y="204.88" width="12.17" height="12.17" rx="1.51"/><circle cx="214.55" cy="185.75" r="6.76"/><circle cx="278.62" cy="210.51" r="6.76"/><circle cx="295.58" cy="185.75" r="6.76"/></svg>