<svg id="Layer_1" data-name="Layer 1" xmlns="http://www.w3.org/2000/svg" viewBox="0 0 512 512"><defs><style>.cls-1,.cls-2{fill:none;stroke:#000;stroke-miterlimit:10;}.cls-1{stroke-width:24px;}.cls-2{stroke-width:15px;}</style></defs><path class="cls-1" d="M384,305.43c-8-50.64-17.21-113.65-28.48-117.64-5.45-9.88-8.86-19.15-47.13-20.85-4.1.1-12.19,5.53-12.19,5.53-41.61-1.22-38.57-1.21-80.17,0,0,0-8.06-5.41-12.15-5.52-38.22,1.71-41.63,10.92-47.06,20.72-9.43,4-16.06,39.23-22.75,80.39-2,12.17-4,24.85-6,37.38a48.12,48.12,0,0,0,1.51,19.39c3.27,16.56,25.69,28.69,39.49,10.61l17.56-34.07s4.44-9.58,15.27-9.58H310.17c10.83,0,15.27,9.58,15.27,9.58L343,335.43c7.34,11.48,22.91,9.92,28.65,5.33C383,333.07,385.26,318,384,305.43ZM156.87,187.63l.56-.28Zm.65-.32.56-.3Zm.59-.32.46-.27Zm197.36.78-.66-.32Z"/><circle cx="322.41" cy="203.5" r="8.92"/><circle cx="322.41" cy="237.83" r="8.92"/><circle cx="303.02" cy="220.66" r="8.92"/><circle cx="342.54" cy="220.66" r="8.92"/><circle cx="288.81" cy="254.97" r="14.82"/><circle cx="185.48" cy="220.66" r="14.82"/><path d="M209.55,239.39V248a1.13,1.13,0,0,1-1.13,1.13h-8.65a2.5,2.5,0,0,0-2.5,2.51v7.94a2.5,2.5,0,0,0,2.5,2.5h8.65a1.13,1.13,0,0,1,1.13,1.14v8.65a2.51,2.51,0,0,0,2.51,2.5H220a2.5,2.5,0,0,0,2.51-2.5v-8.65a1.14,1.14,0,0,1,1.13-1.14h8.65a2.51,2.51,0,0,0,2.51-2.5v-7.94a2.51,2.51,0,0,0-2.51-2.51h-8.65a1.14,1.14,0,0,1-1.13-1.13v-8.65a2.51,2.51,0,0,0-2.51-2.51h-7.94A2.51,2.51,0,0,0,209.55,239.39Z"/><rect x="232.64" y="216.3" width="9.43" height="9.43" rx="1.17"/><circle cx="223.87" cy="201.47" r="5.24"/><circle cx="273.54" cy="220.66" r="5.24"/><circle cx="286.68" cy="201.47" r="5.24"/><path d="M166.58,152l5.7,1,28-41.77L156.6,85.89,152,89.54c13.12,5.91,22.34,15.22,25.12,27.08S175.72,140.91,166.58,152Z"/><path class="cls-2" d="M178.51,113.14a131.27,131.27,0,0,0-97.94,157.7"/><path d="M342,152l-5.71,1-28-41.77L352,85.89l4.63,3.65c-13.11,5.91-22.34,15.22-25.11,27.08S332.88,140.91,342,152Z"/><path class="cls-2" d="M330.09,113.14A131.27,131.27,0,0,1,428,270.84"/></svg>