<svg id="Layer_1" data-name="Layer 1" xmlns="http://www.w3.org/2000/svg" viewBox="0 0 512 512"><defs><style>.cls-1{fill:none;stroke:#000;stroke-miterlimit:10;stroke-width:24px;}</style></defs><path d="M223.69,302.5a71.86,71.86,0,0,1-10.4-.78,74.68,74.68,0,0,1-10.41-2.27,82.71,82.71,0,0,1-9.83-3.59,54.56,54.56,0,0,1-8-4.3l8.51-16.91c.55.41,1.36,1,2.58,1.75a53,53,0,0,0,7.33,3.77,75.78,75.78,0,0,0,9.68,3.34,41.52,41.52,0,0,0,11,1.48c8.27,0,12.47-2.69,12.47-8a6.88,6.88,0,0,0-2-5.05,17,17,0,0,0-5-3.3,52.66,52.66,0,0,0-7.32-2.63c-2.77-.79-5.78-1.66-9-2.63a77.74,77.74,0,0,1-11.06-4.23,28.62,28.62,0,0,1-7.58-5.15,18.45,18.45,0,0,1-4.38-6.63,24.87,24.87,0,0,1-1.45-8.87,28.49,28.49,0,0,1,2.67-12.61,27.19,27.19,0,0,1,7.25-9.23A31.78,31.78,0,0,1,209.29,211a42.72,42.72,0,0,1,13-1.94,49.75,49.75,0,0,1,9.44.91,71.36,71.36,0,0,1,9,2.34,65.39,65.39,0,0,1,8,3.24c2.15,1.06,4.17,2.13,6,3.18l-8.46,16c-.45-.32-1.07-.72-1.95-1.26a53.85,53.85,0,0,0-6.05-3.1,58,58,0,0,0-7.91-2.81,31.92,31.92,0,0,0-8.71-1.23c-10.41,0-12.6,4.78-12.6,8.78a7.2,7.2,0,0,0,1.47,4.58,12,12,0,0,0,4,3.1,35.31,35.31,0,0,0,6.31,2.38c2.45.7,5.34,1.5,8.58,2.38a110,110,0,0,1,12,4,31.74,31.74,0,0,1,8.89,5.24,20.94,20.94,0,0,1,5.53,7.49,26.34,26.34,0,0,1,2,10.67,27,27,0,0,1-2.84,12.9,24.28,24.28,0,0,1-7.54,8.49A32.19,32.19,0,0,1,236.51,301,55,55,0,0,1,223.69,302.5Z"/><path d="M270.07,302.45V222.93h18.37v63.39H327v16.13Z"/><path class="cls-1" d="M120.88,171.15H433.37a0,0,0,0,1,0,0v169.7a0,0,0,0,1,0,0H120.88A42.25,42.25,0,0,1,78.63,298.6V213.4A42.25,42.25,0,0,1,120.88,171.15Z"/></svg>