<svg id="Layer_1" data-name="Layer 1" xmlns="http://www.w3.org/2000/svg" viewBox="0 0 512 512"><defs><style>.cls-1{fill:none;stroke:#fff;stroke-width:24px;}.cls-2{fill:#fff;}</style></defs><path class="cls-1" d="M330.67,297.33H181.32s-1,.06-2.68,0c-28.43.15-40.81-14.85-46.63-29.49a61.86,61.86,0,0,1-4.32-22.92V215.71a1.26,1.26,0,0,1,1.28-1.25H383a1.27,1.27,0,0,1,1.29,1.25c0,6.91,0,38.79,0,36.46C382.85,266.52,367,300.52,330.67,297.33Z"/><circle class="cls-2" cx="277.16" cy="256.1" r="8.69"/><circle class="cls-2" cx="309.78" cy="256.1" r="8.69"/><circle class="cls-2" cx="293.47" cy="273.04" r="8.69"/><circle class="cls-2" cx="293.47" cy="238.96" r="8.69"/><circle class="cls-2" cx="222.32" cy="256" r="18.95"/></svg>