<svg id="Layer_1" data-name="Layer 1" xmlns="http://www.w3.org/2000/svg" viewBox="0 0 512 512"><defs><style>.cls-1,.cls-3{fill:none;stroke:#fff;}.cls-1{stroke-miterlimit:10;stroke-width:15px;}.cls-2{fill:#fff;}.cls-3{stroke-width:24px;}</style></defs><path class="cls-1" d="M85.18,220c-34,11.92-54.6,27.43-54.6,44.39,0,37.57,100.92,68,225.42,68s225.42-30.45,225.42-68c0-16.44-19.32-31.51-51.47-43.27"/><path class="cls-2" d="M435.69,261.25l-5.59-.31-16.41-46.5,47.13-15.15,3.48,4.54c-13.74,2.91-24.64,10-30.07,20.85S429.73,248.52,435.69,261.25Z"/><path class="cls-3" d="M330.67,297.33H181.32s-1,.06-2.68,0c-28.43.15-40.81-14.85-46.63-29.49a61.86,61.86,0,0,1-4.32-22.92V215.71a1.26,1.26,0,0,1,1.28-1.25H383a1.27,1.27,0,0,1,1.29,1.25c0,6.91,0,38.79,0,36.46C382.85,266.52,367,300.52,330.67,297.33Z"/><circle class="cls-2" cx="277.16" cy="256.1" r="8.69"/><circle class="cls-2" cx="309.78" cy="256.1" r="8.69"/><circle class="cls-2" cx="293.47" cy="273.04" r="8.69"/><circle class="cls-2" cx="293.47" cy="238.96" r="8.69"/><circle class="cls-2" cx="222.32" cy="256" r="18.95"/></svg>