<svg id="Layer_1" data-name="Layer 1" xmlns="http://www.w3.org/2000/svg" viewBox="0 0 512 512"><defs><style>.cls-1,.cls-3{fill:none;stroke:#fff;stroke-miterlimit:10;}.cls-1{stroke-width:24px;}.cls-2{fill:#fff;}.cls-3{stroke-width:15px;}</style></defs><path class="cls-1" d="M421.08,320.18c-10.28-65.32-22.2-146.6-36.74-151.75-7-12.75-11.43-24.71-60.8-26.9-5.29.13-15.72,7.14-15.72,7.14-53.67-1.58-49.76-1.57-103.42,0,0,0-10.39-7-15.68-7.13-49.29,2.2-53.7,14.08-60.7,26.73-12.15,5.1-20.72,50.61-29.34,103.7-2.55,15.69-5.1,32.05-7.76,48.22a62.16,62.16,0,0,0,2,25c4.23,21.37,33.14,37,50.94,13.69l22.66-43.95s5.72-12.36,19.69-12.36H325.84c14,0,19.69,12.36,19.69,12.36l22.66,43.95c9.48,14.8,29.56,12.79,37,6.87C419.8,355.83,422.69,336.41,421.08,320.18Zm-293-152,.73-.37Zm.84-.43.72-.38Zm.76-.4.59-.35Zm254.58,1-.85-.42Z"/><circle class="cls-2" cx="341.63" cy="188.69" r="11.51"/><circle class="cls-2" cx="341.63" cy="232.97" r="11.51"/><circle class="cls-2" cx="316.62" cy="210.83" r="11.51"/><circle class="cls-2" cx="367.6" cy="210.83" r="11.51"/><circle class="cls-2" cx="298.28" cy="255.09" r="19.12"/><circle class="cls-2" cx="165" cy="210.83" r="19.12"/><path class="cls-2" d="M196.05,235v11.15a1.47,1.47,0,0,1-1.47,1.47H183.43a3.22,3.22,0,0,0-3.23,3.23v10.24a3.22,3.22,0,0,0,3.23,3.23h11.15a1.47,1.47,0,0,1,1.47,1.47v11.16a3.23,3.23,0,0,0,3.23,3.23h10.25a3.23,3.23,0,0,0,3.23-3.23V265.78a1.46,1.46,0,0,1,1.46-1.47h11.16a3.23,3.23,0,0,0,3.23-3.23V250.84a3.23,3.23,0,0,0-3.23-3.23H214.22a1.46,1.46,0,0,1-1.46-1.47V235a3.24,3.24,0,0,0-3.23-3.24H199.28A3.23,3.23,0,0,0,196.05,235Z"/><rect class="cls-2" x="225.83" y="205.2" width="12.17" height="12.17" rx="1.51"/><circle class="cls-2" cx="214.51" cy="186.07" r="6.76"/><circle class="cls-2" cx="278.58" cy="210.83" r="6.76"/><circle class="cls-2" cx="295.54" cy="186.07" r="6.76"/><path class="cls-3" d="M73.12,207.43C36.69,220.18,14.66,236.79,14.66,255c0,40.21,108.05,72.82,241.34,72.82S497.34,295.16,497.34,255c0-17.6-20.68-33.74-55.11-46.33"/><path class="cls-2" d="M446.3,247l-5.59-.3L424.3,200.2l47.13-15.15,3.48,4.53c-13.74,2.91-24.64,10-30.07,20.86S440.34,234.28,446.3,247Z"/><path class="cls-3" d="M73.12,207.43C36.69,220.18,14.66,236.79,14.66,255c0,40.21,108.05,72.82,241.34,72.82S497.34,295.16,497.34,255c0-17.6-20.68-33.74-55.11-46.33"/><path class="cls-2" d="M446.3,247l-5.59-.3L424.3,200.2l47.13-15.15,3.48,4.53c-13.74,2.91-24.64,10-30.07,20.86S440.34,234.28,446.3,247Z"/></svg>