<svg id="Layer_1" data-name="Layer 1" xmlns="http://www.w3.org/2000/svg" viewBox="0 0 4096 2160"><defs><style>.cls-1,.cls-2{fill:none;}.cls-1,.cls-2,.cls-4{stroke:#fff;stroke-width:7px;}.cls-2{stroke-miterlimit:10;}.cls-3,.cls-4{fill:#fff;}</style></defs><path class="cls-1" d="M2818.61,617.59H1286.94a4.67,4.67,0,0,0-4.68,4.62c-.06,10.19-3,33.7-28.82,33.7v894.94H2852.11V655.91c-25.82,0-28.76-23.51-28.82-33.7A4.67,4.67,0,0,0,2818.61,617.59Z"/><path class="cls-1" d="M952.05,1355.79V812.65s-.21-3.58,0-9.75c-.55-103.42,54-148.41,107.26-169.6a225.49,225.49,0,0,1,83.36-15.71h106.2a4.62,4.62,0,0,1,4.57,4.68v923.89a4.61,4.61,0,0,1-4.57,4.68c-25.12,0-141.06,0-132.58,0C1064.1,1545.53,940.46,1488.05,952.05,1355.79Z"/><circle class="cls-1" cx="2998.99" cy="782.84" r="31.62"/><circle class="cls-1" cx="2998.99" cy="923.31" r="31.62"/><circle class="cls-1" cx="2926.5" cy="853.07" r="31.62"/><circle class="cls-1" cx="3072.24" cy="853.07" r="31.62"/><circle class="cls-1" cx="1108.92" cy="1040.24" r="31.62"/><circle class="cls-1" cx="1108.92" cy="1180.71" r="31.62"/><circle class="cls-1" cx="1036.42" cy="1110.47" r="31.62"/><circle class="cls-1" cx="1182.17" cy="1110.47" r="31.62"/><rect class="cls-1" x="1178.19" y="699.61" width="49.29" height="16.7" rx="2.52"/><path class="cls-1" d="M2929,701.1h-12.53a2.16,2.16,0,0,1-2.16-2.16V686.41a2.17,2.17,0,0,0-2.17-2.16h-10.59a2.16,2.16,0,0,0-2.16,2.16v12.53a2.16,2.16,0,0,1-2.16,2.16h-12.53a2.16,2.16,0,0,0-2.16,2.16v10.59a2.16,2.16,0,0,0,2.16,2.16h12.53a2.17,2.17,0,0,1,2.16,2.17V730.7a2.17,2.17,0,0,0,2.16,2.17h10.59a2.17,2.17,0,0,0,2.17-2.17V718.18a2.16,2.16,0,0,1,2.16-2.17H2929a2.16,2.16,0,0,0,2.16-2.16V703.26A2.16,2.16,0,0,0,2929,701.1Z"/><circle class="cls-1" cx="2947.76" cy="1286.75" r="32.9"/><polygon class="cls-2" points="2948.52 1270.48 2933.66 1283.53 2935.86 1283.53 2935.86 1301.5 2948.52 1301.5 2961.18 1301.5 2961.18 1283.53 2963.37 1283.53 2948.52 1270.48"/><rect class="cls-3" x="2943.19" y="1285.99" width="10.65" height="9.66"/><rect class="cls-2" x="1136.18" y="1262.57" width="50.86" height="50.86" rx="5.97"/><circle class="cls-2" cx="1161.61" cy="1287.72" r="16.57"/><rect class="cls-2" x="1301.45" y="652.48" width="1503.24" height="866.15" rx="23.56"/><rect class="cls-2" x="1418.96" y="726.45" width="1268.21" height="711.06"/><polygon class="cls-3" points="3008.85 770.39 3004.12 770.35 2998.83 778.86 2993.54 770.35 2988.81 770.39 2996.19 782.56 2987.58 796.58 2992.31 796.62 2998.83 786.26 3005.35 796.62 3010.08 796.58 3001.48 782.56 3008.85 770.39"/><polygon class="cls-3" points="2931.77 842.03 2925.4 850.89 2919.03 842.03 2913.65 842.02 2923.25 855.34 2923.25 866.76 2927.55 866.76 2927.55 855.34 2937.16 842.02 2931.77 842.03"/><path class="cls-3" d="M3005.35,922.38a9.21,9.21,0,0,0,2-5.09,8.16,8.16,0,0,0-1.77-4.9,5.8,5.8,0,0,0-4.65-2.27h-10.47v26.43h11.42l.14,0c2.18-.29,6.35-1.73,6.48-7.42A7.85,7.85,0,0,0,3005.35,922.38Zm-3.78-8s1.58.63,1.58,3.17a3.29,3.29,0,0,1-2.37,3.17h-6v-6.34Zm0,17.83h-6.78v-7.18h6.33s3.11.8,3.11,3.59C3004.22,931.71,3002.16,932.12,3001.56,932.25Z"/><path class="cls-3" d="M3074.81,838.78h-3.75l-11.41,25.67,4.54-.07,2.94-6.52h11.53l2.64,5.9,4.55.09Zm-5.74,14.78,3.85-8.53,3.82,8.53Z"/><circle class="cls-1" cx="2999.33" cy="1110.47" r="68.9"/><circle class="cls-1" cx="2999.33" cy="1110.47" r="52.32"/><line class="cls-4" x1="2999.33" y1="1058.16" x2="2999.33" y2="1041.58"/><line class="cls-4" x1="3051.65" y1="1110.47" x2="3068.23" y2="1110.47"/><line class="cls-4" x1="2999.33" y1="1179.37" x2="2999.33" y2="1162.79"/><line class="cls-4" x1="2947.01" y1="1110.47" x2="2930.43" y2="1110.47"/><circle class="cls-1" cx="1109.29" cy="851.74" r="68.9"/><circle class="cls-1" cx="1109.29" cy="851.74" r="52.32"/><line class="cls-4" x1="1109.29" y1="799.42" x2="1109.29" y2="782.84"/><line class="cls-4" x1="1161.61" y1="851.74" x2="1178.19" y2="851.74"/><line class="cls-4" x1="1109.29" y1="904.06" x2="1109.29" y2="920.64"/><line class="cls-4" x1="1056.98" y1="851.74" x2="1040.4" y2="851.74"/><path class="cls-3" d="M1107.84,1028.63l-11.7,19.08a1.43,1.43,0,0,0,1.22,2.18h23.4a1.43,1.43,0,0,0,1.22-2.18l-11.7-19.08A1.43,1.43,0,0,0,1107.84,1028.63Z"/><path class="cls-3" d="M1110.28,1193.7l11.7-19.07a1.44,1.44,0,0,0-1.22-2.19h-23.4a1.44,1.44,0,0,0-1.22,2.19l11.7,19.07A1.42,1.42,0,0,0,1110.28,1193.7Z"/><path class="cls-3" d="M1022.75,1112.39l19.08,11.7a1.44,1.44,0,0,0,2.18-1.23v-23.39a1.43,1.43,0,0,0-2.18-1.22l-19.08,11.7A1.43,1.43,0,0,0,1022.75,1112.39Z"/><path class="cls-3" d="M1194.61,1110l-19.07-11.7a1.44,1.44,0,0,0-2.19,1.22v23.39a1.44,1.44,0,0,0,2.19,1.23l19.07-11.7A1.42,1.42,0,0,0,1194.61,1110Z"/><path class="cls-1" d="M3153.5,1355.79V812.65s.21-3.58,0-9.75c.55-103.42-54-148.41-107.26-169.6a225.45,225.45,0,0,0-83.36-15.71h-106.2a4.62,4.62,0,0,0-4.57,4.68v923.89a4.61,4.61,0,0,0,4.57,4.68c25.12,0,141.06,0,132.58,0C3041.45,1545.53,3165.09,1488.05,3153.5,1355.79Z"/><path class="cls-1" d="M2962.88,617.59a225.45,225.45,0,0,1,83.36,15.71c39.09,15.55,78.88,43.93,97.06,98.83h5.94c-16.52-61.33-63.39-89.49-88-102.18C3035.82,616.86,2999,607,2963.63,607h-50v10.57Z"/><path class="cls-1" d="M1142.85,617.59a225.45,225.45,0,0,0-83.36,15.71c-39.09,15.55-78.88,43.93-97.07,98.83h-5.93c16.52-61.33,63.39-89.49,88-102.18,25.41-13.09,62.23-22.93,97.6-22.93h50v10.57Z"/><polygon class="cls-3" points="1467.88 608.74 1467.88 617.59 1601.1 617.59 1601.1 608.74 1532.22 613.27 1467.88 608.74"/></svg>